<?xml version="1.0" encoding="utf-8"?>
<!-- Generator: Avocode 2.6.0 - http://avocode.com -->
<svg height="88" width="222" xmlns:xlink="http://www.w3.org/1999/xlink" xmlns="http://www.w3.org/2000/svg" viewBox="0 0 222 88">
    <defs>
        <linearGradient y2="0%" y1="100%" x2="0%" x1="0%" id="gradient-1">
            <stop stop-color="#ffa800" offset="0%" />
            <stop stop-color="#ffbf44" offset="100%" />
        </linearGradient>
        <filter height="200%" width="200%" y="-50%" x="-50%" id="filter-2">
            <feOffset result="shadowOffset1" in="SourceAlpha" dy="1.7" dx="1" />
            <feGaussianBlur result="shadowBlur1" in="shadowOffset1" stdDeviation="2" />
            <feColorMatrix result="shadowMatrix1" in="shadowBlur1" type="matrix" values="0 0 0 0 0   0 0 0 0 0   0 0 0 0 0   0 0 0 0.14 0" />
            <feOffset result="shadowOffset2" in="SourceAlpha" dy="-4" dx="0" />
            <feGaussianBlur result="shadowBlur2" in="shadowOffset2" stdDeviation="0" />
            <feComposite result="shadowInner2" in2="SourceAlpha" in1="shadowBlur2" k3="1" k2="-1" operator="arithmetic" />
            <feColorMatrix result="shadowMatrix2" in="shadowInner2" type="matrix" values="0 0 0 0 0.9019607843137255   0 0 0 0 0.596078431372549   0 0 0 0 0   0 0 0 1 0" />
            <feMerge>
                <feMergeNode in="shadowMatrix1" />
                <feMergeNode in="SourceGraphic" />
                <feMergeNode in="shadowMatrix2" />
            </feMerge>
        </filter>
    </defs>
    <path fill="#ffbe40" fill-rule="evenodd" d="M 1 73 C 1 73 1 71 1 71 C 1 71 221 71 221 71 C 221 71 221 73 221 73 C 221 73 1 73 1 73 Z" />
    <path fill="#ffbe40" fill-rule="evenodd" d="M 1 36 C 1 36 1 34 1 34 C 1 34 221 34 221 34 C 221 34 221 36 221 36 C 221 36 1 36 1 36 Z" />
    <path fill="#404041" fill-rule="evenodd" d="M 221.51 61.87 C 221.51 61.87 221.51 68.86 221.51 68.86 C 221.51 68.86 205.59 68.86 205.59 68.86 C 205.59 68.86 205.59 61.87 205.59 61.87 C 205.59 61.87 209.58 61.87 209.58 61.87 C 209.58 61.87 209.58 44.63 209.58 44.63 C 209.58 44.63 205.9 44.63 205.9 44.63 C 205.9 44.63 205.9 37.67 205.9 37.67 C 205.9 37.67 221.19 37.67 221.19 37.67 C 221.19 37.67 221.19 44.63 221.19 44.63 C 221.19 44.63 217.52 44.63 217.52 44.63 C 217.52 44.63 217.52 61.87 217.52 61.87 C 217.52 61.87 221.51 61.87 221.51 61.87 Z M 186.98 59.06 C 186.98 59.06 186.71 59.06 186.71 59.06 C 186.71 59.06 180.7 68.86 180.7 68.86 C 180.7 68.86 172.32 68.86 172.32 68.86 C 172.32 68.86 172.32 67.66 172.32 67.66 C 172.32 67.66 182.45 52.33 182.45 52.33 C 182.45 52.33 173.39 38.88 173.39 38.88 C 173.39 38.88 173.39 37.67 173.39 37.67 C 173.39 37.67 181.6 37.67 181.6 37.67 C 181.6 37.67 186.71 45.78 186.71 45.78 C 186.71 45.78 186.94 45.78 186.94 45.78 C 186.94 45.78 192.18 37.67 192.18 37.67 C 192.18 37.67 200.26 37.67 200.26 37.67 C 200.26 37.67 200.26 38.88 200.26 38.88 C 200.26 38.88 191.2 52.33 191.2 52.33 C 191.2 52.33 201.38 67.66 201.38 67.66 C 201.38 67.66 201.38 68.86 201.38 68.86 C 201.38 68.86 192.95 68.86 192.95 68.86 C 192.95 68.86 186.98 59.06 186.98 59.06 Z M 158.33 64.94 C 158.33 64.94 145.95 64.94 145.95 64.94 C 145.95 64.94 144.12 68.86 144.12 68.86 C 144.12 68.86 136.27 68.86 136.27 68.86 C 136.27 68.86 136.27 67.71 136.27 67.71 C 136.27 67.71 150.39 37.27 150.39 37.27 C 150.39 37.27 153.85 37.27 153.85 37.27 C 153.85 37.27 168.02 67.71 168.02 67.71 C 168.02 67.71 168.02 68.86 168.02 68.86 C 168.02 68.86 160.17 68.86 160.17 68.86 C 160.17 68.86 158.33 64.94 158.33 64.94 Z M 152.1 49.93 C 152.1 49.93 148.56 58.13 148.56 58.13 C 148.56 58.13 155.73 58.13 155.73 58.13 C 155.73 58.13 152.1 49.93 152.1 49.93 Z M 127.44 68.86 C 124.79 68.86 122.15 68.86 119.5 68.86 C 119.5 68.86 119.5 44.8 119.5 44.8 C 119.5 44.8 111.79 44.8 111.79 44.8 C 111.79 42.4 111.79 40.04 111.79 37.67 C 111.79 37.67 135.11 37.67 135.11 37.67 C 135.11 40.04 135.11 42.4 135.11 44.8 C 135.11 44.8 127.44 44.8 127.44 44.8 C 127.44 44.8 127.44 68.86 127.44 68.86 Z M 96.23 55.36 C 96.23 55.36 107.31 55.36 107.31 55.36 C 107.31 55.36 107.31 58.26 107.31 58.26 C 107.31 58.26 96.23 58.26 96.23 58.26 C 96.23 58.26 96.23 55.36 96.23 55.36 Z M 77.67 59.06 C 77.67 59.06 77.4 59.06 77.4 59.06 C 77.4 59.06 71.39 68.86 71.39 68.86 C 71.39 68.86 63 68.86 63 68.86 C 63 68.86 63 67.66 63 67.66 C 63 67.66 73.14 52.33 73.14 52.33 C 73.14 52.33 64.08 38.88 64.08 38.88 C 64.08 38.88 64.08 37.67 64.08 37.67 C 64.08 37.67 72.29 37.67 72.29 37.67 C 72.29 37.67 77.4 45.78 77.4 45.78 C 77.4 45.78 77.62 45.78 77.62 45.78 C 77.62 45.78 82.87 37.67 82.87 37.67 C 82.87 37.67 90.94 37.67 90.94 37.67 C 90.94 37.67 90.94 38.88 90.94 38.88 C 90.94 38.88 81.88 52.33 81.88 52.33 C 81.88 52.33 92.06 67.66 92.06 67.66 C 92.06 67.66 92.06 68.86 92.06 68.86 C 92.06 68.86 83.63 68.86 83.63 68.86 C 83.63 68.86 77.67 59.06 77.67 59.06 Z M 27.04 53.31 C 27.04 31.75 59.24 31.75 59.24 53.31 C 59.24 74.92 27.04 74.92 27.04 53.31 Z M 35.29 53.31 C 35.29 64.63 51.04 64.63 51.04 53.31 C 51.04 42.08 35.29 42.08 35.29 53.31 Z M 9.15 51.62 C 9.15 51.62 19.25 51.62 19.25 51.62 C 19.25 54.29 19.25 55.99 19.25 58.75 C 19.25 58.75 9.15 58.75 9.15 58.75 C 9.15 58.75 9.15 68.86 9.15 68.86 C 6.46 68.86 3.73 68.86 0.99 68.86 C 0.99 68.86 0.99 37.67 0.99 37.67 C 7.41 37.67 14.13 37.67 20.55 37.67 C 20.55 40.3 20.55 42.13 20.55 44.8 C 20.55 44.8 9.15 44.8 9.15 44.8 C 9.15 44.8 9.15 51.62 9.15 51.62 Z" />
    <path fill="#404041" fill-rule="evenodd" d="M 218.95 85.19 C 218.95 85.19 218.95 78.54 218.95 78.54 C 218.95 78.54 218.89 78.54 218.89 78.54 C 218.89 78.54 216.27 85.19 216.27 85.19 C 216.27 85.19 214.99 85.19 214.99 85.19 C 214.99 85.19 214.99 76.24 214.99 76.24 C 214.99 76.24 216.14 76.24 216.14 76.24 C 216.14 76.24 216.14 82.89 216.14 82.89 C 216.14 82.89 216.2 82.89 216.2 82.89 C 216.2 82.89 218.76 76.24 218.76 76.24 C 218.76 76.24 220.11 76.24 220.11 76.24 C 220.11 76.24 220.11 85.19 220.11 85.19 C 220.11 85.19 218.95 85.19 218.95 85.19 Z M 217.55 75.47 C 217.13 75.47 216.77 75.38 216.46 75.21 C 216.15 75.03 215.92 74.8 215.76 74.51 C 215.76 74.51 216.27 74 216.27 74 C 216.4 74.13 216.57 74.26 216.79 74.38 C 217 74.51 217.26 74.58 217.55 74.58 C 217.84 74.58 218.09 74.51 218.31 74.38 C 218.52 74.26 218.7 74.13 218.83 74 C 218.83 74 219.34 74.51 219.34 74.51 C 219.18 74.8 218.94 75.03 218.63 75.21 C 218.33 75.38 217.96 75.47 217.55 75.47 Z M 209.23 76.24 C 209.23 76.24 213.58 76.24 213.58 76.24 C 213.58 76.24 213.58 77.13 213.58 77.13 C 213.58 77.13 210.38 77.13 210.38 77.13 C 210.38 77.13 210.38 80.07 210.38 80.07 C 210.38 80.07 213.2 80.07 213.2 80.07 C 213.2 80.07 213.2 80.97 213.2 80.97 C 213.2 80.97 210.38 80.97 210.38 80.97 C 210.38 80.97 210.38 84.29 210.38 84.29 C 210.38 84.29 213.58 84.29 213.58 84.29 C 213.58 84.29 213.58 85.19 213.58 85.19 C 213.58 85.19 209.23 85.19 209.23 85.19 C 209.23 85.19 209.23 76.24 209.23 76.24 Z M 206.29 77.13 C 206.29 77.13 204.27 77.13 204.27 77.13 C 204.27 77.13 203.99 82.5 203.99 82.5 C 203.96 83.01 203.9 83.45 203.8 83.81 C 203.7 84.16 203.58 84.45 203.43 84.68 C 203.28 84.9 203.11 85.06 202.92 85.16 C 202.73 85.26 202.53 85.32 202.32 85.32 C 202.11 85.32 201.93 85.29 201.77 85.25 C 201.69 85.23 201.61 85.21 201.56 85.19 C 201.56 85.19 201.56 84.61 201.56 84.61 C 201.73 84.61 201.9 84.58 202.04 84.51 C 202.19 84.44 202.31 84.32 202.43 84.16 C 202.54 83.99 202.63 83.77 202.7 83.51 C 202.77 83.24 202.82 82.9 202.83 82.5 C 202.83 82.5 203.15 76.24 203.15 76.24 C 203.15 76.24 207.44 76.24 207.44 76.24 C 207.44 76.24 207.44 85.19 207.44 85.19 C 207.44 85.19 206.29 85.19 206.29 85.19 C 206.29 85.19 206.29 77.13 206.29 77.13 Z M 196.69 76.24 C 196.69 76.24 201.04 76.24 201.04 76.24 C 201.04 76.24 201.04 77.13 201.04 77.13 C 201.04 77.13 197.85 77.13 197.85 77.13 C 197.85 77.13 197.85 80.07 197.85 80.07 C 197.85 80.07 200.66 80.07 200.66 80.07 C 200.66 80.07 200.66 80.97 200.66 80.97 C 200.66 80.97 197.85 80.97 197.85 80.97 C 197.85 80.97 197.85 84.29 197.85 84.29 C 197.85 84.29 201.04 84.29 201.04 84.29 C 201.04 84.29 201.04 85.19 201.04 85.19 C 201.04 85.19 196.69 85.19 196.69 85.19 C 196.69 85.19 196.69 76.24 196.69 76.24 Z M 193.62 85.19 C 193.62 85.19 192.47 85.19 192.47 85.19 C 192.47 85.19 192.47 77.13 192.47 77.13 C 192.47 77.13 190.43 77.13 190.43 77.13 C 190.43 77.13 190.43 76.24 190.43 76.24 C 190.43 76.24 195.67 76.24 195.67 76.24 C 195.67 76.24 195.67 77.13 195.67 77.13 C 195.67 77.13 193.62 77.13 193.62 77.13 C 193.62 77.13 193.62 85.19 193.62 85.19 Z M 188.25 78.54 C 188.25 78.54 188.19 78.54 188.19 78.54 C 188.19 78.54 185.56 85.19 185.56 85.19 C 185.56 85.19 184.28 85.19 184.28 85.19 C 184.28 85.19 184.28 76.24 184.28 76.24 C 184.28 76.24 185.44 76.24 185.44 76.24 C 185.44 76.24 185.44 82.89 185.44 82.89 C 185.44 82.89 185.5 82.89 185.5 82.89 C 185.5 82.89 188.06 76.24 188.06 76.24 C 188.06 76.24 189.4 76.24 189.4 76.24 C 189.4 76.24 189.4 85.19 189.4 85.19 C 189.4 85.19 188.25 85.19 188.25 85.19 C 188.25 85.19 188.25 78.54 188.25 78.54 Z M 181.98 85.19 C 181.98 85.19 177.63 85.19 177.63 85.19 C 177.56 85.95 177.44 86.59 177.25 87.1 C 177.25 87.1 176.54 87.1 176.54 87.1 C 176.54 87.1 176.54 84.29 176.54 84.29 C 176.54 84.29 177.18 84.29 177.18 84.29 C 177.29 84.1 177.38 83.88 177.48 83.63 C 177.56 83.41 177.63 83.13 177.7 82.81 C 177.76 82.49 177.81 82.11 177.82 81.67 C 177.82 81.67 178.08 76.24 178.08 76.24 C 178.08 76.24 182.24 76.24 182.24 76.24 C 182.24 76.24 182.24 84.29 182.24 84.29 C 182.24 84.29 183.07 84.29 183.07 84.29 C 183.07 84.29 183.07 87.1 183.07 87.1 C 183.07 87.1 182.37 87.1 182.37 87.1 C 182.17 86.59 182.04 85.95 181.98 85.19 Z M 181.09 77.13 C 181.09 77.13 179.19 77.13 179.19 77.13 C 179.19 77.13 178.98 81.67 178.98 81.67 C 178.96 82.11 178.92 82.49 178.85 82.81 C 178.78 83.13 178.71 83.41 178.63 83.63 C 178.54 83.88 178.44 84.1 178.33 84.29 C 178.33 84.29 181.09 84.29 181.09 84.29 C 181.09 84.29 181.09 77.13 181.09 77.13 Z M 175.18 84.36 C 174.94 84.71 174.65 84.95 174.31 85.1 C 173.98 85.24 173.59 85.32 173.15 85.32 C 172.72 85.32 172.33 85.24 172 85.1 C 171.66 84.95 171.37 84.71 171.13 84.36 C 170.89 84.01 170.71 83.54 170.59 82.94 C 170.46 82.35 170.4 81.61 170.4 80.71 C 170.4 79.82 170.46 79.07 170.59 78.48 C 170.71 77.89 170.89 77.42 171.13 77.07 C 171.37 76.72 171.66 76.47 172 76.33 C 172.33 76.18 172.72 76.11 173.15 76.11 C 173.59 76.11 173.98 76.18 174.31 76.33 C 174.65 76.47 174.94 76.72 175.18 77.07 C 175.41 77.42 175.6 77.89 175.72 78.48 C 175.84 79.07 175.9 79.82 175.9 80.71 C 175.9 81.61 175.84 82.35 175.72 82.94 C 175.6 83.54 175.41 84.01 175.18 84.36 Z M 174.62 78.82 C 174.53 78.33 174.41 77.93 174.27 77.64 C 174.12 77.35 173.95 77.15 173.76 77.04 C 173.56 76.93 173.36 76.88 173.15 76.88 C 172.95 76.88 172.75 76.93 172.55 77.04 C 172.36 77.15 172.19 77.35 172.04 77.64 C 171.9 77.93 171.78 78.33 171.69 78.82 C 171.6 79.32 171.56 79.94 171.56 80.71 C 171.56 81.48 171.6 82.11 171.69 82.6 C 171.78 83.1 171.9 83.49 172.04 83.78 C 172.19 84.07 172.36 84.27 172.55 84.38 C 172.75 84.49 172.95 84.55 173.15 84.55 C 173.36 84.55 173.56 84.49 173.76 84.38 C 173.95 84.27 174.12 84.07 174.27 83.78 C 174.41 83.49 174.53 83.1 174.62 82.6 C 174.71 82.11 174.75 81.48 174.75 80.71 C 174.75 79.94 174.71 79.32 174.62 78.82 Z M 168.6 84.71 C 168.37 84.92 168.07 85.07 167.69 85.17 C 167.32 85.27 166.86 85.32 166.31 85.32 C 165.93 85.32 165.57 85.3 165.24 85.26 C 164.91 85.22 164.59 85.15 164.26 85.06 C 164.26 85.06 164.26 76.36 164.26 76.36 C 164.59 76.27 164.91 76.21 165.24 76.17 C 165.57 76.13 165.93 76.11 166.31 76.11 C 167.21 76.11 167.87 76.3 168.27 76.69 C 168.67 77.08 168.87 77.67 168.87 78.47 C 168.87 78.86 168.79 79.22 168.64 79.55 C 168.5 79.88 168.23 80.15 167.85 80.37 C 167.85 80.37 167.85 80.42 167.85 80.42 C 168.36 80.56 168.72 80.85 168.93 81.26 C 169.15 81.68 169.25 82.18 169.25 82.76 C 169.25 83.21 169.2 83.6 169.1 83.92 C 169 84.24 168.83 84.5 168.6 84.71 Z M 166.18 76.94 C 166.18 76.94 165.41 76.94 165.41 76.94 C 165.41 76.94 165.41 80.07 165.41 80.07 C 165.41 80.07 166.18 80.07 166.18 80.07 C 167.21 80.07 167.72 79.54 167.72 78.47 C 167.72 77.45 167.21 76.94 166.18 76.94 Z M 167.69 81.33 C 167.41 81.04 166.95 80.9 166.31 80.9 C 166.31 80.9 165.41 80.9 165.41 80.9 C 165.41 80.9 165.41 84.48 165.41 84.48 C 165.41 84.48 166.31 84.48 166.31 84.48 C 166.95 84.48 167.41 84.35 167.69 84.08 C 167.96 83.81 168.1 83.37 168.1 82.76 C 168.1 82.09 167.96 81.61 167.69 81.33 Z M 158.83 85.19 C 158.83 85.19 157.23 81.35 157.23 81.35 C 157.23 81.35 155.63 85.19 155.63 85.19 C 155.63 85.19 154.48 85.19 154.48 85.19 C 154.48 85.19 156.39 80.58 156.39 80.58 C 156.39 80.58 154.67 76.24 154.67 76.24 C 154.67 76.24 155.82 76.24 155.82 76.24 C 155.82 76.24 157.23 79.82 157.23 79.82 C 157.23 79.82 158.63 76.24 158.63 76.24 C 158.63 76.24 159.79 76.24 159.79 76.24 C 159.79 76.24 158.06 80.58 158.06 80.58 C 158.06 80.58 159.98 85.19 159.98 85.19 C 159.98 85.19 158.83 85.19 158.83 85.19 Z M 152.24 76.24 C 152.24 76.24 153.39 76.24 153.39 76.24 C 153.39 76.24 153.39 85.19 153.39 85.19 C 153.39 85.19 152.24 85.19 152.24 85.19 C 152.24 85.19 152.24 76.24 152.24 76.24 Z M 150.52 84.68 C 150.3 84.9 150.02 85.06 149.67 85.16 C 149.32 85.26 148.89 85.32 148.4 85.32 C 148.02 85.32 147.66 85.3 147.33 85.26 C 147 85.22 146.68 85.15 146.35 85.06 C 146.35 85.06 146.35 76.24 146.35 76.24 C 146.35 76.24 147.5 76.24 147.5 76.24 C 147.5 76.24 147.5 79.88 147.5 79.88 C 147.67 79.85 147.87 79.82 148.12 79.79 C 148.37 79.77 148.59 79.75 148.78 79.75 C 149.58 79.75 150.18 79.97 150.57 80.39 C 150.96 80.82 151.15 81.54 151.15 82.57 C 151.15 83.06 151.1 83.48 151 83.83 C 150.89 84.18 150.73 84.47 150.52 84.68 Z M 149.61 81.08 C 149.35 80.79 148.95 80.65 148.4 80.65 C 148.4 80.65 147.5 80.65 147.5 80.65 C 147.5 80.65 147.5 84.48 147.5 84.48 C 147.5 84.48 148.4 84.48 148.4 84.48 C 148.95 84.48 149.35 84.34 149.61 84.06 C 149.87 83.77 150 83.27 150 82.57 C 150 81.86 149.87 81.36 149.61 81.08 Z M 143.41 81.1 C 143.41 81.1 140.72 81.1 140.72 81.1 C 140.72 81.1 140.72 85.19 140.72 85.19 C 140.72 85.19 139.57 85.19 139.57 85.19 C 139.57 85.19 139.57 76.24 139.57 76.24 C 139.57 76.24 140.72 76.24 140.72 76.24 C 140.72 76.24 140.72 80.2 140.72 80.2 C 140.72 80.2 143.41 80.2 143.41 80.2 C 143.41 80.2 143.41 76.24 143.41 76.24 C 143.41 76.24 144.56 76.24 144.56 76.24 C 144.56 76.24 144.56 85.19 144.56 85.19 C 144.56 85.19 143.41 85.19 143.41 85.19 C 143.41 85.19 143.41 81.1 143.41 81.1 Z M 136.5 85.19 C 136.5 85.19 135.35 85.19 135.35 85.19 C 135.35 85.19 135.35 77.13 135.35 77.13 C 135.35 77.13 133.3 77.13 133.3 77.13 C 133.3 77.13 133.3 76.24 133.3 76.24 C 133.3 76.24 138.55 76.24 138.55 76.24 C 138.55 76.24 138.55 77.13 138.55 77.13 C 138.55 77.13 136.5 77.13 136.5 77.13 C 136.5 77.13 136.5 85.19 136.5 85.19 Z M 131.07 85.32 C 130.61 85.32 130.21 85.24 129.87 85.1 C 129.52 84.95 129.23 84.71 128.99 84.36 C 128.74 84.01 128.56 83.54 128.44 82.94 C 128.31 82.35 128.25 81.61 128.25 80.71 C 128.25 79.82 128.31 79.07 128.44 78.48 C 128.56 77.89 128.74 77.42 128.97 77.07 C 129.2 76.72 129.48 76.47 129.81 76.33 C 130.14 76.18 130.52 76.11 130.94 76.11 C 131.32 76.11 131.69 76.14 132.04 76.19 C 132.39 76.24 132.66 76.3 132.86 76.36 C 132.86 76.36 132.86 76.94 132.86 76.94 C 132.86 76.94 131.19 76.94 131.19 76.94 C 130.94 76.94 130.7 77 130.48 77.11 C 130.27 77.22 130.08 77.42 129.91 77.7 C 129.75 77.99 129.63 78.37 129.54 78.86 C 129.45 79.34 129.4 79.96 129.4 80.71 C 129.4 81.46 129.45 82.08 129.54 82.57 C 129.64 83.05 129.77 83.44 129.93 83.72 C 130.1 84.01 130.3 84.21 130.53 84.32 C 130.77 84.43 131.03 84.48 131.32 84.48 C 131.32 84.48 132.98 84.48 132.98 84.48 C 132.98 84.48 132.98 85.06 132.98 85.06 C 132.79 85.13 132.51 85.19 132.17 85.24 C 131.82 85.29 131.45 85.32 131.07 85.32 Z M 122.75 76.24 C 122.75 76.24 127.1 76.24 127.1 76.24 C 127.1 76.24 127.1 77.13 127.1 77.13 C 127.1 77.13 123.9 77.13 123.9 77.13 C 123.9 77.13 123.9 80.07 123.9 80.07 C 123.9 80.07 126.71 80.07 126.71 80.07 C 126.71 80.07 126.71 80.97 126.71 80.97 C 126.71 80.97 123.9 80.97 123.9 80.97 C 123.9 80.97 123.9 84.29 123.9 84.29 C 123.9 84.29 127.1 84.29 127.1 84.29 C 127.1 84.29 127.1 85.19 127.1 85.19 C 127.1 85.19 122.75 85.19 122.75 85.19 C 122.75 85.19 122.75 76.24 122.75 76.24 Z M 120.69 84.71 C 120.46 84.92 120.16 85.07 119.78 85.17 C 119.41 85.27 118.95 85.32 118.4 85.32 C 118.02 85.32 117.66 85.3 117.33 85.26 C 117 85.22 116.68 85.15 116.35 85.06 C 116.35 85.06 116.35 76.36 116.35 76.36 C 116.68 76.27 117 76.21 117.33 76.17 C 117.66 76.13 118.02 76.11 118.4 76.11 C 119.3 76.11 119.96 76.3 120.36 76.69 C 120.76 77.08 120.96 77.67 120.96 78.47 C 120.96 78.86 120.88 79.22 120.74 79.55 C 120.58 79.88 120.32 80.15 119.94 80.37 C 119.94 80.37 119.94 80.42 119.94 80.42 C 120.45 80.56 120.81 80.85 121.02 81.26 C 121.24 81.68 121.34 82.18 121.34 82.76 C 121.34 83.21 121.29 83.6 121.19 83.92 C 121.09 84.24 120.92 84.5 120.69 84.71 Z M 118.27 76.94 C 118.27 76.94 117.5 76.94 117.5 76.94 C 117.5 76.94 117.5 80.07 117.5 80.07 C 117.5 80.07 118.27 80.07 118.27 80.07 C 119.3 80.07 119.81 79.54 119.81 78.47 C 119.81 77.45 119.3 76.94 118.27 76.94 Z M 119.77 81.33 C 119.5 81.04 119.04 80.9 118.4 80.9 C 118.4 80.9 117.5 80.9 117.5 80.9 C 117.5 80.9 117.5 84.48 117.5 84.48 C 117.5 84.48 118.4 84.48 118.4 84.48 C 119.04 84.48 119.5 84.35 119.77 84.08 C 120.05 83.81 120.19 83.37 120.19 82.76 C 120.19 82.09 120.05 81.61 119.77 81.33 Z M 114.09 84.36 C 113.85 84.71 113.56 84.95 113.23 85.1 C 112.89 85.24 112.5 85.32 112.07 85.32 C 111.63 85.32 111.25 85.24 110.91 85.1 C 110.57 84.95 110.29 84.71 110.05 84.36 C 109.81 84.01 109.63 83.54 109.5 82.94 C 109.38 82.35 109.32 81.61 109.32 80.71 C 109.32 79.82 109.38 79.07 109.5 78.48 C 109.63 77.89 109.81 77.42 110.05 77.07 C 110.29 76.72 110.57 76.47 110.91 76.33 C 111.25 76.18 111.63 76.11 112.07 76.11 C 112.5 76.11 112.89 76.18 113.23 76.33 C 113.56 76.47 113.85 76.72 114.09 77.07 C 114.33 77.42 114.51 77.89 114.63 78.48 C 114.76 79.07 114.82 79.82 114.82 80.71 C 114.82 81.61 114.76 82.35 114.63 82.94 C 114.51 83.54 114.33 84.01 114.09 84.36 Z M 113.53 78.82 C 113.44 78.33 113.32 77.93 113.18 77.64 C 113.04 77.35 112.87 77.15 112.67 77.04 C 112.47 76.93 112.27 76.88 112.07 76.88 C 111.86 76.88 111.66 76.93 111.47 77.04 C 111.27 77.15 111.1 77.35 110.95 77.64 C 110.81 77.93 110.69 78.33 110.6 78.82 C 110.51 79.32 110.47 79.94 110.47 80.71 C 110.47 81.48 110.51 82.11 110.6 82.6 C 110.69 83.1 110.81 83.49 110.95 83.78 C 111.1 84.07 111.27 84.27 111.47 84.38 C 111.66 84.49 111.86 84.55 112.07 84.55 C 112.27 84.55 112.47 84.49 112.67 84.38 C 112.87 84.27 113.04 84.07 113.18 83.78 C 113.32 83.49 113.44 83.1 113.53 82.6 C 113.62 82.11 113.67 81.48 113.67 80.71 C 113.67 79.94 113.62 79.32 113.53 78.82 Z M 106.82 85.32 C 106.37 85.32 105.97 85.24 105.63 85.1 C 105.28 84.95 104.99 84.71 104.74 84.36 C 104.5 84.01 104.32 83.54 104.19 82.94 C 104.07 82.35 104.01 81.61 104.01 80.71 C 104.01 79.82 104.07 79.07 104.19 78.48 C 104.32 77.89 104.49 77.42 104.72 77.07 C 104.95 76.72 105.24 76.47 105.57 76.33 C 105.9 76.18 106.28 76.11 106.69 76.11 C 107.08 76.11 107.44 76.14 107.79 76.19 C 108.14 76.24 108.42 76.3 108.61 76.36 C 108.61 76.36 108.61 76.94 108.61 76.94 C 108.61 76.94 106.95 76.94 106.95 76.94 C 106.69 76.94 106.46 77 106.24 77.11 C 106.02 77.22 105.83 77.42 105.67 77.7 C 105.51 77.99 105.38 78.37 105.29 78.86 C 105.2 79.34 105.16 79.96 105.16 80.71 C 105.16 81.46 105.21 82.08 105.3 82.57 C 105.39 83.05 105.52 83.44 105.69 83.72 C 105.86 84.01 106.06 84.21 106.29 84.32 C 106.52 84.43 106.79 84.48 107.08 84.48 C 107.08 84.48 108.74 84.48 108.74 84.48 C 108.74 84.48 108.74 85.06 108.74 85.06 C 108.55 85.13 108.27 85.19 107.92 85.24 C 107.57 85.29 107.21 85.32 106.82 85.32 Z M 102 84.36 C 101.76 84.71 101.47 84.95 101.14 85.1 C 100.8 85.24 100.41 85.32 99.98 85.32 C 99.54 85.32 99.16 85.24 98.82 85.1 C 98.48 84.95 98.2 84.71 97.96 84.36 C 97.72 84.01 97.54 83.54 97.41 82.94 C 97.29 82.35 97.23 81.61 97.23 80.71 C 97.23 79.82 97.29 79.07 97.41 78.48 C 97.54 77.89 97.72 77.42 97.96 77.07 C 98.2 76.72 98.48 76.47 98.82 76.33 C 99.16 76.18 99.54 76.11 99.98 76.11 C 100.41 76.11 100.8 76.18 101.14 76.33 C 101.47 76.47 101.76 76.72 102 77.07 C 102.24 77.42 102.42 77.89 102.54 78.48 C 102.67 79.07 102.73 79.82 102.73 80.71 C 102.73 81.61 102.67 82.35 102.54 82.94 C 102.42 83.54 102.24 84.01 102 84.36 Z M 101.44 78.82 C 101.35 78.33 101.24 77.93 101.09 77.64 C 100.95 77.35 100.77 77.15 100.58 77.04 C 100.38 76.93 100.18 76.88 99.98 76.88 C 99.77 76.88 99.57 76.93 99.38 77.04 C 99.18 77.15 99.01 77.35 98.87 77.64 C 98.72 77.93 98.6 78.33 98.51 78.82 C 98.42 79.32 98.38 79.94 98.38 80.71 C 98.38 81.48 98.42 82.11 98.51 82.6 C 98.6 83.1 98.72 83.49 98.87 83.78 C 99.01 84.07 99.18 84.27 99.38 84.38 C 99.57 84.49 99.77 84.55 99.98 84.55 C 100.18 84.55 100.38 84.49 100.58 84.38 C 100.77 84.27 100.95 84.07 101.09 83.78 C 101.24 83.49 101.35 83.1 101.44 82.6 C 101.53 82.11 101.58 81.48 101.58 80.71 C 101.58 79.94 101.53 79.32 101.44 78.82 Z M 95.48 81.87 C 95.28 82.12 95.03 82.3 94.73 82.41 C 94.42 82.51 94.06 82.57 93.64 82.57 C 93.45 82.57 93.23 82.55 92.98 82.53 C 92.73 82.5 92.53 82.47 92.37 82.44 C 92.37 82.44 92.37 85.19 92.37 85.19 C 92.37 85.19 91.21 85.19 91.21 85.19 C 91.21 85.19 91.21 76.36 91.21 76.36 C 91.54 76.27 91.87 76.21 92.19 76.17 C 92.52 76.13 92.88 76.11 93.26 76.11 C 93.77 76.11 94.21 76.16 94.57 76.27 C 94.92 76.38 95.21 76.55 95.44 76.8 C 95.66 77.05 95.82 77.38 95.92 77.78 C 96.02 78.19 96.08 78.7 96.08 79.31 C 96.08 79.93 96.03 80.45 95.93 80.87 C 95.83 81.28 95.68 81.62 95.48 81.87 Z M 94.83 78.16 C 94.76 77.85 94.66 77.61 94.53 77.43 C 94.39 77.25 94.22 77.12 94.01 77.05 C 93.8 76.98 93.55 76.94 93.26 76.94 C 93.26 76.94 92.37 76.94 92.37 76.94 C 92.37 76.94 92.37 81.67 92.37 81.67 C 92.37 81.67 93.26 81.67 93.26 81.67 C 93.55 81.67 93.8 81.63 94.01 81.56 C 94.22 81.49 94.39 81.36 94.53 81.19 C 94.66 81.01 94.76 80.76 94.83 80.46 C 94.89 80.15 94.92 79.77 94.92 79.31 C 94.92 78.85 94.89 78.46 94.83 78.16 Z M 89.17 84.68 C 88.95 84.9 88.66 85.06 88.3 85.16 C 87.94 85.26 87.51 85.32 86.99 85.32 C 86.61 85.32 86.25 85.3 85.93 85.26 C 85.6 85.22 85.27 85.15 84.95 85.06 C 84.95 85.06 84.95 76.24 84.95 76.24 C 84.95 76.24 89.42 76.24 89.42 76.24 C 89.42 76.24 89.42 77.13 89.42 77.13 C 89.42 77.13 86.1 77.13 86.1 77.13 C 86.1 77.13 86.1 79.75 86.1 79.75 C 86.1 79.75 86.99 79.75 86.99 79.75 C 87.51 79.75 87.94 79.81 88.3 79.91 C 88.66 80.01 88.95 80.17 89.17 80.39 C 89.39 80.61 89.55 80.9 89.65 81.26 C 89.76 81.62 89.81 82.06 89.81 82.57 C 89.81 83.06 89.76 83.48 89.65 83.83 C 89.55 84.18 89.39 84.47 89.17 84.68 Z M 88.26 81.08 C 88 80.79 87.57 80.65 86.99 80.65 C 86.99 80.65 86.1 80.65 86.1 80.65 C 86.1 80.65 86.1 84.48 86.1 84.48 C 86.1 84.48 86.99 84.48 86.99 84.48 C 87.57 84.48 88 84.34 88.26 84.06 C 88.52 83.77 88.66 83.27 88.66 82.57 C 88.66 81.86 88.52 81.36 88.26 81.08 Z M 82.68 84.36 C 82.44 84.71 82.16 84.95 81.82 85.1 C 81.48 85.24 81.1 85.32 80.66 85.32 C 80.22 85.32 79.84 85.24 79.5 85.1 C 79.16 84.95 78.88 84.71 78.64 84.36 C 78.4 84.01 78.22 83.54 78.1 82.94 C 77.97 82.35 77.91 81.61 77.91 80.71 C 77.91 79.82 77.97 79.07 78.1 78.48 C 78.22 77.89 78.4 77.42 78.64 77.07 C 78.88 76.72 79.16 76.47 79.5 76.33 C 79.84 76.18 80.22 76.11 80.66 76.11 C 81.1 76.11 81.48 76.18 81.82 76.33 C 82.16 76.47 82.44 76.72 82.68 77.07 C 82.92 77.42 83.1 77.89 83.23 78.48 C 83.35 79.07 83.41 79.82 83.41 80.71 C 83.41 81.61 83.35 82.35 83.23 82.94 C 83.1 83.54 82.92 84.01 82.68 84.36 Z M 82.13 78.82 C 82.04 78.33 81.92 77.93 81.77 77.64 C 81.63 77.35 81.46 77.15 81.26 77.04 C 81.07 76.93 80.87 76.88 80.66 76.88 C 80.46 76.88 80.26 76.93 80.06 77.04 C 79.86 77.15 79.69 77.35 79.55 77.64 C 79.4 77.93 79.29 78.33 79.19 78.82 C 79.11 79.32 79.06 79.94 79.06 80.71 C 79.06 81.48 79.11 82.11 79.19 82.6 C 79.29 83.1 79.4 83.49 79.55 83.78 C 79.69 84.07 79.86 84.27 80.06 84.38 C 80.26 84.49 80.46 84.55 80.66 84.55 C 80.87 84.55 81.07 84.49 81.26 84.38 C 81.46 84.27 81.63 84.07 81.77 83.78 C 81.92 83.49 82.04 83.1 82.13 82.6 C 82.22 82.11 82.26 81.48 82.26 80.71 C 82.26 79.94 82.22 79.32 82.13 78.82 Z M 75.99 85.19 C 75.99 85.19 71.64 85.19 71.64 85.19 C 71.57 85.95 71.44 86.59 71.26 87.1 C 71.26 87.1 70.55 87.1 70.55 87.1 C 70.55 87.1 70.55 84.29 70.55 84.29 C 70.55 84.29 71.19 84.29 71.19 84.29 C 71.3 84.1 71.39 83.88 71.49 83.63 C 71.56 83.41 71.64 83.13 71.71 82.81 C 71.77 82.49 71.82 82.11 71.83 81.67 C 71.83 81.67 72.09 76.24 72.09 76.24 C 72.09 76.24 76.25 76.24 76.25 76.24 C 76.25 76.24 76.25 84.29 76.25 84.29 C 76.25 84.29 77.08 84.29 77.08 84.29 C 77.08 84.29 77.08 87.1 77.08 87.1 C 77.08 87.1 76.38 87.1 76.38 87.1 C 76.18 86.59 76.05 85.95 75.99 85.19 Z M 75.1 77.13 C 75.1 77.13 73.2 77.13 73.2 77.13 C 73.2 77.13 72.98 81.67 72.98 81.67 C 72.97 82.11 72.93 82.49 72.86 82.81 C 72.79 83.13 72.72 83.41 72.64 83.63 C 72.54 83.88 72.45 84.1 72.35 84.29 C 72.35 84.29 75.1 84.29 75.1 84.29 C 75.1 84.29 75.1 77.13 75.1 77.13 Z M 65.18 81.54 C 65.18 81.54 64.67 81.54 64.67 81.54 C 64.41 81.54 64.17 81.63 63.95 81.79 C 63.73 81.95 63.56 82.25 63.45 82.69 C 63.45 82.69 63.2 83.78 63.2 83.78 C 62.94 84.8 62.45 85.32 61.73 85.32 C 61.53 85.32 61.35 85.29 61.2 85.25 C 61.12 85.23 61.04 85.21 60.96 85.19 C 60.96 85.19 60.96 84.61 60.96 84.61 C 61.28 84.61 61.52 84.54 61.66 84.39 C 61.81 84.24 61.91 84.04 61.98 83.78 C 61.98 83.78 62.24 82.69 62.24 82.69 C 62.33 82.28 62.46 81.95 62.62 81.72 C 62.78 81.49 62.98 81.34 63.2 81.28 C 63.2 81.28 63.2 81.22 63.2 81.22 C 62.99 81.19 62.79 81.12 62.58 81.01 C 62.37 80.9 62.18 80.74 62.02 80.54 C 61.86 80.34 61.73 80.09 61.62 79.81 C 61.52 79.51 61.47 79.18 61.47 78.79 C 61.47 78.32 61.52 77.91 61.62 77.57 C 61.73 77.23 61.89 76.95 62.11 76.73 C 62.33 76.51 62.62 76.36 62.98 76.26 C 63.34 76.16 63.77 76.11 64.29 76.11 C 64.67 76.11 65.03 76.13 65.35 76.17 C 65.68 76.21 66.01 76.27 66.33 76.36 C 66.33 76.36 66.33 85.19 66.33 85.19 C 66.33 85.19 65.18 85.19 65.18 85.19 C 65.18 85.19 65.18 81.54 65.18 81.54 Z M 65.18 76.94 C 65.18 76.94 64.29 76.94 64.29 76.94 C 63.71 76.94 63.28 77.08 63.02 77.36 C 62.75 77.64 62.62 78.12 62.62 78.79 C 62.62 79.47 62.75 79.94 63.02 80.23 C 63.28 80.51 63.71 80.65 64.29 80.65 C 64.29 80.65 65.18 80.65 65.18 80.65 C 65.18 80.65 65.18 76.94 65.18 76.94 Z M 58.78 77.13 C 58.78 77.13 56.76 77.13 56.76 77.13 C 56.76 77.13 56.48 82.5 56.48 82.5 C 56.46 83.01 56.39 83.45 56.3 83.81 C 56.2 84.16 56.07 84.45 55.93 84.68 C 55.78 84.9 55.6 85.06 55.41 85.16 C 55.22 85.26 55.02 85.32 54.82 85.32 C 54.6 85.32 54.42 85.29 54.27 85.25 C 54.18 85.23 54.11 85.21 54.05 85.19 C 54.05 85.19 54.05 84.61 54.05 84.61 C 54.23 84.61 54.39 84.58 54.54 84.51 C 54.68 84.44 54.81 84.32 54.92 84.16 C 55.03 83.99 55.12 83.77 55.19 83.51 C 55.27 83.24 55.31 82.9 55.33 82.5 C 55.33 82.5 55.65 76.24 55.65 76.24 C 55.65 76.24 59.94 76.24 59.94 76.24 C 59.94 76.24 59.94 85.19 59.94 85.19 C 59.94 85.19 58.78 85.19 58.78 85.19 C 58.78 85.19 58.78 77.13 58.78 77.13 Z M 52.64 85.19 C 52.64 85.19 48.29 85.19 48.29 85.19 C 48.22 85.95 48.1 86.59 47.91 87.1 C 47.91 87.1 47.21 87.1 47.21 87.1 C 47.21 87.1 47.21 84.29 47.21 84.29 C 47.21 84.29 47.85 84.29 47.85 84.29 C 47.95 84.1 48.05 83.88 48.14 83.63 C 48.22 83.41 48.29 83.13 48.36 82.81 C 48.43 82.49 48.47 82.11 48.49 81.67 C 48.49 81.67 48.74 76.24 48.74 76.24 C 48.74 76.24 52.9 76.24 52.9 76.24 C 52.9 76.24 52.9 84.29 52.9 84.29 C 52.9 84.29 53.73 84.29 53.73 84.29 C 53.73 84.29 53.73 87.1 53.73 87.1 C 53.73 87.1 53.03 87.1 53.03 87.1 C 52.83 86.59 52.7 85.95 52.64 85.19 Z M 51.75 77.13 C 51.75 77.13 49.85 77.13 49.85 77.13 C 49.85 77.13 49.64 81.67 49.64 81.67 C 49.62 82.11 49.58 82.49 49.51 82.81 C 49.44 83.13 49.37 83.41 49.29 83.63 C 49.2 83.88 49.1 84.1 49 84.29 C 49 84.29 51.75 84.29 51.75 84.29 C 51.75 84.29 51.75 77.13 51.75 77.13 Z M 42.77 81.87 C 42.57 82.12 42.32 82.3 42.02 82.41 C 41.72 82.51 41.35 82.57 40.94 82.57 C 40.74 82.57 40.52 82.55 40.27 82.53 C 40.03 82.5 39.82 82.47 39.66 82.44 C 39.66 82.44 39.66 85.19 39.66 85.19 C 39.66 85.19 38.51 85.19 38.51 85.19 C 38.51 85.19 38.51 76.36 38.51 76.36 C 38.83 76.27 39.16 76.21 39.49 76.17 C 39.81 76.13 40.17 76.11 40.55 76.11 C 41.07 76.11 41.5 76.16 41.86 76.27 C 42.22 76.38 42.51 76.55 42.73 76.8 C 42.95 77.05 43.11 77.38 43.22 77.78 C 43.32 78.19 43.37 78.7 43.37 79.31 C 43.37 79.93 43.32 80.45 43.22 80.87 C 43.12 81.28 42.97 81.62 42.77 81.87 Z M 42.12 78.16 C 42.06 77.85 41.96 77.61 41.82 77.43 C 41.68 77.25 41.51 77.12 41.3 77.05 C 41.09 76.98 40.84 76.94 40.55 76.94 C 40.55 76.94 39.66 76.94 39.66 76.94 C 39.66 76.94 39.66 81.67 39.66 81.67 C 39.66 81.67 40.55 81.67 40.55 81.67 C 40.84 81.67 41.09 81.63 41.3 81.56 C 41.51 81.49 41.68 81.36 41.82 81.19 C 41.96 81.01 42.06 80.76 42.12 80.46 C 42.19 80.15 42.22 79.77 42.22 79.31 C 42.22 78.85 42.19 78.46 42.12 78.16 Z M 32.75 76.24 C 32.75 76.24 37.1 76.24 37.1 76.24 C 37.1 76.24 37.1 77.13 37.1 77.13 C 37.1 77.13 33.9 77.13 33.9 77.13 C 33.9 77.13 33.9 80.07 33.9 80.07 C 33.9 80.07 36.72 80.07 36.72 80.07 C 36.72 80.07 36.72 80.97 36.72 80.97 C 36.72 80.97 33.9 80.97 33.9 80.97 C 33.9 80.97 33.9 84.29 33.9 84.29 C 33.9 84.29 37.1 84.29 37.1 84.29 C 37.1 84.29 37.1 85.19 37.1 85.19 C 37.1 85.19 32.75 85.19 32.75 85.19 C 32.75 85.19 32.75 76.24 32.75 76.24 Z M 29.81 81.1 C 29.81 81.1 27.12 81.1 27.12 81.1 C 27.12 81.1 27.12 85.19 27.12 85.19 C 27.12 85.19 25.97 85.19 25.97 85.19 C 25.97 85.19 25.97 76.24 25.97 76.24 C 25.97 76.24 27.12 76.24 27.12 76.24 C 27.12 76.24 27.12 80.2 27.12 80.2 C 27.12 80.2 29.81 80.2 29.81 80.2 C 29.81 80.2 29.81 76.24 29.81 76.24 C 29.81 76.24 30.96 76.24 30.96 76.24 C 30.96 76.24 30.96 85.19 30.96 85.19 C 30.96 85.19 29.81 85.19 29.81 85.19 C 29.81 85.19 29.81 81.1 29.81 81.1 Z M 22.9 85.19 C 22.9 85.19 21.75 85.19 21.75 85.19 C 21.75 85.19 21.75 77.13 21.75 77.13 C 21.75 77.13 19.7 77.13 19.7 77.13 C 19.7 77.13 19.7 76.24 19.7 76.24 C 19.7 76.24 24.95 76.24 24.95 76.24 C 24.95 76.24 24.95 77.13 24.95 77.13 C 24.95 77.13 22.9 77.13 22.9 77.13 C 22.9 77.13 22.9 85.19 22.9 85.19 Z M 18.47 81.87 C 18.27 82.12 18.01 82.3 17.71 82.41 C 17.41 82.51 17.05 82.57 16.63 82.57 C 16.44 82.57 16.21 82.55 15.97 82.53 C 15.72 82.5 15.51 82.47 15.35 82.44 C 15.35 82.44 15.35 85.19 15.35 85.19 C 15.35 85.19 14.2 85.19 14.2 85.19 C 14.2 85.19 14.2 76.36 14.2 76.36 C 14.52 76.27 14.85 76.21 15.18 76.17 C 15.51 76.13 15.86 76.11 16.25 76.11 C 16.76 76.11 17.19 76.16 17.55 76.27 C 17.91 76.38 18.2 76.55 18.42 76.8 C 18.64 77.05 18.81 77.38 18.91 77.78 C 19.01 78.19 19.06 78.7 19.06 79.31 C 19.06 79.93 19.01 80.45 18.91 80.87 C 18.82 81.28 18.67 81.62 18.47 81.87 Z M 17.81 78.16 C 17.75 77.85 17.65 77.61 17.51 77.43 C 17.38 77.25 17.21 77.12 17 77.05 C 16.79 76.98 16.54 76.94 16.25 76.94 C 16.25 76.94 15.35 76.94 15.35 76.94 C 15.35 76.94 15.35 81.67 15.35 81.67 C 15.35 81.67 16.25 81.67 16.25 81.67 C 16.54 81.67 16.79 81.63 17 81.56 C 17.21 81.49 17.38 81.36 17.51 81.19 C 17.65 81.01 17.75 80.76 17.81 80.46 C 17.88 80.15 17.91 79.77 17.91 79.31 C 17.91 78.85 17.88 78.46 17.81 78.16 Z M 11.32 82.89 C 11.32 82.89 8.76 82.89 8.76 82.89 C 8.76 82.89 8.19 85.19 8.19 85.19 C 8.19 85.19 7.04 85.19 7.04 85.19 C 7.04 85.19 9.21 76.24 9.21 76.24 C 9.21 76.24 10.87 76.24 10.87 76.24 C 10.87 76.24 13.05 85.19 13.05 85.19 C 13.05 85.19 11.9 85.19 11.9 85.19 C 11.9 85.19 11.32 82.89 11.32 82.89 Z M 10.07 77.52 C 10.07 77.52 10.02 77.52 10.02 77.52 C 10.02 77.52 8.96 81.99 8.96 81.99 C 8.96 81.99 11.13 81.99 11.13 81.99 C 11.13 81.99 10.07 77.52 10.07 77.52 Z M 4.73 77.13 C 4.73 77.13 2.05 77.13 2.05 77.13 C 2.05 77.13 2.05 85.19 2.05 85.19 C 2.05 85.19 0.9 85.19 0.9 85.19 C 0.9 85.19 0.9 76.24 0.9 76.24 C 0.9 76.24 5.88 76.24 5.88 76.24 C 5.88 76.24 5.88 85.19 5.88 85.19 C 5.88 85.19 4.73 85.19 4.73 85.19 C 4.73 85.19 4.73 77.13 4.73 77.13 Z" />
    <path filter="url(#filter-2)" fill="url(#gradient-1)" fill-rule="evenodd" d="M 144.82 24.96 C 144.82 24.96 138.71 2.82 138.71 2.82 C 138.25 1.16 136.74 0 135.02 0 C 135.02 0 87.98 0 87.98 0 C 86.26 0 84.75 1.16 84.29 2.82 C 84.29 2.82 78.14 25.12 78.14 25.12 C 77.82 26.28 78.06 27.52 78.78 28.48 C 79.51 29.44 80.64 30 81.84 30 C 81.84 30 141.16 30 141.16 30 C 141.16 30 141.17 30 141.17 30 C 143.28 30 145 28.28 145 26.15 C 145 25.74 144.94 25.34 144.82 24.96 Z" />
    <path fill="#ffffff" fill-rule="evenodd" d="M 131.71 13.26 C 131.71 13.26 124.04 13.26 124.04 13.26 C 124.04 13.26 124.04 5.28 124.04 5.28 C 124.04 5.06 123.86 4.87 123.64 4.87 C 123.64 4.87 115.5 4.87 115.5 4.87 C 115.28 4.87 115.1 5.06 115.1 5.28 C 115.1 5.28 115.1 13.26 115.1 13.26 C 115.1 13.26 107.9 13.26 107.9 13.26 C 107.9 13.26 107.9 5.28 107.9 5.28 C 107.9 5.06 107.72 4.87 107.5 4.87 C 107.5 4.87 99.36 4.87 99.36 4.87 C 99.14 4.87 98.96 5.06 98.96 5.28 C 98.96 5.28 98.96 13.26 98.96 13.26 C 98.96 13.26 91.29 13.26 91.29 13.26 C 91.06 13.26 90.89 13.45 90.89 13.67 C 90.89 13.67 90.89 22.07 90.89 22.07 C 90.89 22.29 91.06 22.48 91.29 22.48 C 91.29 22.48 99.43 22.48 99.43 22.48 C 99.65 22.48 99.83 22.29 99.83 22.07 C 99.83 22.07 99.83 14.09 99.83 14.09 C 99.83 14.09 107.03 14.09 107.03 14.09 C 107.03 14.09 107.03 22.07 107.03 22.07 C 107.03 22.29 107.21 22.48 107.43 22.48 C 107.43 22.48 115.57 22.48 115.57 22.48 C 115.79 22.48 115.97 22.29 115.97 22.07 C 115.97 22.07 115.97 14.09 115.97 14.09 C 115.97 14.09 123.17 14.09 123.17 14.09 C 123.17 14.09 123.17 22.07 123.17 22.07 C 123.17 22.29 123.35 22.48 123.57 22.48 C 123.57 22.48 131.71 22.48 131.71 22.48 C 131.94 22.48 132.12 22.29 132.12 22.07 C 132.12 22.07 132.12 13.67 132.12 13.67 C 132.12 13.45 131.94 13.26 131.71 13.26 Z" />
</svg>