<?xml version="1.0" encoding="utf-8"?>
<!-- Generator: Avocode 2.6.0 - http://avocode.com -->
<svg height="118" width="102" xmlns:xlink="http://www.w3.org/1999/xlink" xmlns="http://www.w3.org/2000/svg" viewBox="0 0 102 118">
    <defs>
        <linearGradient y2="0%" y1="100%" x2="0%" x1="0%" id="gradient-1">
            <stop stop-color="#ffa800" offset="0%" />
            <stop stop-color="#ffbf44" offset="100%" />
        </linearGradient>
        <filter height="200%" width="200%" y="-50%" x="-50%" id="filter-2">
            <feOffset result="shadowOffset1" in="SourceAlpha" dy="1.7" dx="1" />
            <feGaussianBlur result="shadowBlur1" in="shadowOffset1" stdDeviation="2" />
            <feColorMatrix result="shadowMatrix1" in="shadowBlur1" type="matrix" values="0 0 0 0 0   0 0 0 0 0   0 0 0 0 0   0 0 0 0.14 0" />
            <feOffset result="shadowOffset2" in="SourceAlpha" dy="-4" dx="0" />
            <feGaussianBlur result="shadowBlur2" in="shadowOffset2" stdDeviation="0" />
            <feComposite result="shadowInner2" in2="SourceAlpha" in1="shadowBlur2" k3="1" k2="-1" operator="arithmetic" />
            <feColorMatrix result="shadowMatrix2" in="shadowInner2" type="matrix" values="0 0 0 0 0.9019607843137255   0 0 0 0 0.596078431372549   0 0 0 0 0   0 0 0 1 0" />
            <feMerge>
                <feMergeNode in="shadowMatrix1" />
                <feMergeNode in="SourceGraphic" />
                <feMergeNode in="shadowMatrix2" />
            </feMerge>
        </filter>
    </defs>
    <path filter="url(#filter-2)" fill="url(#gradient-1)" fill-rule="evenodd" d="M 0 28.75 C 0 28.75 50 0 50 0 C 50 0 100 28.75 100 28.75 C 100 28.75 100 86.25 100 86.25 C 100 86.25 50 115 50 115 C 50 115 0 86.25 0 86.25 C 0 86.25 0 28.75 0 28.75 Z" />
    <path fill="#ffffff" fill-rule="evenodd" d="M 68.63 57.22 C 68.63 57.22 68.45 57.22 68.45 57.22 C 68.45 57.22 68.76 58 68.76 58 C 69.38 59.52 69.88 62.09 69.88 63.73 C 69.88 63.73 69.88 74.6 69.88 74.6 C 69.88 75.92 68.82 77 67.51 77 C 67.51 77 64.67 77 64.67 77 C 63.36 77 62.3 75.92 62.3 74.6 C 62.3 74.6 62.3 71.93 62.3 71.93 C 62.3 71.93 36.67 71.93 36.67 71.93 C 36.67 71.93 36.67 74.6 36.67 74.6 C 36.67 75.92 35.61 77 34.31 77 C 34.31 77 31.46 77 31.46 77 C 30.15 77 29.09 75.92 29.09 74.6 C 29.09 74.6 29.09 63.73 29.09 63.73 C 29.09 62.09 29.59 59.52 30.2 58 C 30.2 58 30.52 57.22 30.52 57.22 C 30.52 57.22 30.37 57.22 30.37 57.22 C 29.06 57.22 28 56.14 28 54.82 C 28 54.82 28 53.66 28 53.66 C 28 52.53 28.77 51.7 29.83 51.7 C 30.03 51.7 30.23 51.73 30.43 51.79 C 30.43 51.79 32.49 52.36 32.49 52.36 C 32.49 52.36 34.69 46.92 34.69 46.92 C 35.35 45.29 37.31 43.96 39.05 43.96 C 39.05 43.96 40.55 43.96 40.55 43.96 C 40.55 43.96 40.55 39.44 40.55 39.44 C 40.55 38.65 41.19 38 41.97 38 C 41.97 38 57.03 38 57.03 38 C 57.81 38 58.45 38.65 58.45 39.44 C 58.45 39.44 58.45 43.96 58.45 43.96 C 58.45 43.96 59.92 43.96 59.92 43.96 C 61.66 43.96 63.62 45.29 64.28 46.92 C 64.28 46.92 66.49 52.37 66.49 52.37 C 66.49 52.37 68.57 51.79 68.57 51.79 C 68.77 51.73 68.97 51.7 69.17 51.7 C 70.23 51.7 71 52.53 71 53.66 C 71 53.66 71 54.82 71 54.82 C 71 56.14 69.94 57.22 68.63 57.22 Z M 33.44 63.47 C 33.44 63.47 33.44 66.55 33.44 66.55 C 33.44 67.08 33.87 67.51 34.39 67.51 C 34.39 67.51 40.79 67.51 40.79 67.51 C 41.31 67.51 41.74 67.08 41.74 66.55 C 41.74 66.55 41.74 63.47 41.74 63.47 C 41.74 62.94 41.31 62.51 40.79 62.51 C 40.79 62.51 34.39 62.51 34.39 62.51 C 33.87 62.51 33.44 62.94 33.44 63.47 Z M 46.15 39.92 C 46.15 39.89 46.13 39.86 46.1 39.86 C 46.1 39.86 42.13 39.86 42.13 39.86 C 42.1 39.86 42.08 39.89 42.08 39.92 C 42.08 39.92 42.08 40.63 42.08 40.63 C 42.08 40.66 42.1 40.68 42.13 40.68 C 42.13 40.68 43.45 40.68 43.45 40.68 C 43.48 40.68 43.51 40.71 43.51 40.74 C 43.51 40.74 43.51 43.91 43.51 43.91 C 43.51 43.93 43.52 43.95 43.53 43.96 C 43.53 43.96 44.69 43.96 44.69 43.96 C 44.7 43.95 44.72 43.93 44.72 43.91 C 44.72 43.91 44.72 40.74 44.72 40.74 C 44.72 40.71 44.74 40.68 44.77 40.68 C 44.77 40.68 46.1 40.68 46.1 40.68 C 46.13 40.68 46.15 40.66 46.15 40.63 C 46.15 40.63 46.15 39.92 46.15 39.92 Z M 54.59 43.93 C 54.59 43.93 53.14 42.1 53.14 42.1 C 53.12 42.08 53.12 42.03 53.13 42.01 C 53.13 42.01 54.51 39.91 54.51 39.91 C 54.52 39.88 54.51 39.86 54.48 39.86 C 54.48 39.86 53.26 39.86 53.26 39.86 C 53.23 39.86 53.19 39.88 53.18 39.91 C 53.18 39.91 52.47 41.08 52.47 41.08 C 52.45 41.1 52.43 41.1 52.41 41.08 C 52.41 41.08 51.7 39.91 51.7 39.91 C 51.69 39.88 51.65 39.86 51.62 39.86 C 51.62 39.86 50.4 39.86 50.4 39.86 C 50.37 39.86 50.36 39.88 50.37 39.91 C 50.37 39.91 51.75 42.01 51.75 42.01 C 51.76 42.03 51.76 42.08 51.74 42.1 C 51.74 42.1 50.31 43.89 50.31 43.89 C 50.31 43.89 48.75 39.92 48.75 39.92 C 48.74 39.89 48.7 39.86 48.67 39.86 C 48.67 39.86 47.36 39.86 47.36 39.86 C 47.33 39.86 47.29 39.89 47.28 39.92 C 47.28 39.92 45.69 43.92 45.69 43.92 C 45.68 43.94 45.68 43.95 45.69 43.96 C 45.69 43.96 46.86 43.96 46.86 43.96 C 46.88 43.95 46.89 43.94 46.9 43.92 C 46.9 43.92 47.19 43.09 47.19 43.09 C 47.2 43.06 47.23 43.03 47.27 43.03 C 47.27 43.03 48.76 43.03 48.76 43.03 C 48.79 43.03 48.82 43.06 48.83 43.09 C 48.83 43.09 49.1 43.92 49.1 43.92 C 49.11 43.93 49.12 43.95 49.14 43.96 C 49.14 43.96 51.57 43.96 51.57 43.96 C 51.59 43.95 51.6 43.94 51.61 43.92 C 51.61 43.92 52.41 42.63 52.41 42.63 C 52.43 42.6 52.45 42.6 52.47 42.63 C 52.47 42.63 53.27 43.92 53.27 43.92 C 53.28 43.94 53.29 43.95 53.31 43.96 C 53.31 43.96 54.6 43.96 54.6 43.96 C 54.61 43.95 54.6 43.94 54.59 43.93 Z M 56.42 39.92 C 56.42 39.89 56.39 39.86 56.36 39.86 C 56.36 39.86 55.26 39.86 55.26 39.86 C 55.23 39.86 55.21 39.89 55.21 39.92 C 55.21 39.92 55.21 43.91 55.21 43.91 C 55.21 43.93 55.22 43.95 55.23 43.96 C 55.23 43.96 56.39 43.96 56.39 43.96 C 56.4 43.95 56.42 43.93 56.42 43.91 C 56.42 43.91 56.42 39.92 56.42 39.92 Z M 64.81 55.88 C 64.81 55.88 61.45 47.6 61.45 47.6 C 61.06 46.62 59.88 45.82 58.84 45.82 C 58.84 45.82 40.13 45.82 40.13 45.82 C 39.09 45.82 37.91 46.62 37.51 47.6 C 37.51 47.6 34.16 55.88 34.16 55.88 C 33.76 56.86 34.29 57.66 35.33 57.66 C 35.33 57.66 63.63 57.66 63.63 57.66 C 64.68 57.66 65.2 56.86 64.81 55.88 Z M 65.47 63.47 C 65.47 62.94 65.04 62.51 64.52 62.51 C 64.52 62.51 58.12 62.51 58.12 62.51 C 57.6 62.51 57.17 62.94 57.17 63.47 C 57.17 63.47 57.17 66.55 57.17 66.55 C 57.17 67.08 57.6 67.51 58.12 67.51 C 58.12 67.51 64.52 67.51 64.52 67.51 C 65.04 67.51 65.47 67.08 65.47 66.55 C 65.47 66.55 65.47 63.47 65.47 63.47 Z M 47.54 42.21 C 47.51 42.21 47.49 42.18 47.51 42.16 C 47.51 42.16 48.01 41.05 48.01 41.05 C 48.02 41.02 48.04 41.02 48.05 41.05 C 48.05 41.05 48.52 42.16 48.52 42.16 C 48.54 42.18 48.52 42.21 48.49 42.21 C 48.49 42.21 47.54 42.21 47.54 42.21 Z" />
</svg>