<?xml version="1.0" encoding="utf-8"?>
<!-- Generator: Avocode 2.6.0 - http://avocode.com -->
<svg height="118" width="102" xmlns:xlink="http://www.w3.org/1999/xlink" xmlns="http://www.w3.org/2000/svg" viewBox="0 0 102 118">
    <defs>
        <linearGradient y2="0%" y1="100%" x2="0%" x1="0%" id="gradient-1">
            <stop stop-color="#ffa800" offset="0%" />
            <stop stop-color="#ffbf44" offset="100%" />
        </linearGradient>
        <filter height="200%" width="200%" y="-50%" x="-50%" id="filter-2">
            <feOffset result="shadowOffset1" in="SourceAlpha" dy="1.7" dx="1" />
            <feGaussianBlur result="shadowBlur1" in="shadowOffset1" stdDeviation="2" />
            <feColorMatrix result="shadowMatrix1" in="shadowBlur1" type="matrix" values="0 0 0 0 0   0 0 0 0 0   0 0 0 0 0   0 0 0 0.14 0" />
            <feOffset result="shadowOffset2" in="SourceAlpha" dy="-4" dx="0" />
            <feGaussianBlur result="shadowBlur2" in="shadowOffset2" stdDeviation="0" />
            <feComposite result="shadowInner2" in2="SourceAlpha" in1="shadowBlur2" k3="1" k2="-1" operator="arithmetic" />
            <feColorMatrix result="shadowMatrix2" in="shadowInner2" type="matrix" values="0 0 0 0 0.9019607843137255   0 0 0 0 0.596078431372549   0 0 0 0 0   0 0 0 1 0" />
            <feMerge>
                <feMergeNode in="shadowMatrix1" />
                <feMergeNode in="SourceGraphic" />
                <feMergeNode in="shadowMatrix2" />
            </feMerge>
        </filter>
    </defs>
    <path filter="url(#filter-2)" fill="url(#gradient-1)" fill-rule="evenodd" d="M 0 28.75 C 0 28.75 50 0 50 0 C 50 0 100 28.75 100 28.75 C 100 28.75 100 86.25 100 86.25 C 100 86.25 50 115 50 115 C 50 115 0 86.25 0 86.25 C 0 86.25 0 28.75 0 28.75 Z" />
    <path fill="#ffffff" fill-rule="evenodd" d="M 67.92 46.13 C 67.56 46.2 67.24 46.23 66.95 46.25 C 66.9 46.26 66.82 46.25 66.74 46.33 C 66.74 46.33 65.84 47.24 65.84 47.24 C 65.68 47.4 65.79 47.53 65.84 47.6 C 68.45 50.99 70 55.25 70 59.88 C 70 60.42 69.98 60.95 69.94 61.48 C 69.12 71.85 60.51 80 50 80 C 38.95 80 30 70.99 30 59.88 C 30 54.72 31.93 50.02 35.1 46.46 C 38.11 43.07 42.25 40.72 46.92 39.99 C 47.01 39.98 47.18 39.94 47.18 39.74 C 47.18 39.74 47.18 39.25 47.18 39.25 C 47.18 39.05 47.05 39.02 46.99 38.99 C 46.17 38.61 45.59 38.06 45.04 37.42 C 43.76 35.94 47.27 35 50.02 35 C 52.77 35 56.27 35.94 54.99 37.42 C 54.43 38.07 53.83 38.64 52.97 39.03 C 52.92 39.05 52.82 39.1 52.82 39.23 C 52.82 39.23 52.82 39.77 52.82 39.77 C 52.82 39.96 53 39.98 53.09 39.99 C 56.74 40.56 60.05 42.12 62.77 44.39 C 62.84 44.45 62.97 44.58 63.14 44.41 C 63.14 44.41 64.02 43.53 64.02 43.53 C 64.08 43.46 64.08 43.4 64.08 43.37 C 64.11 43.08 64.14 42.79 64.21 42.39 C 64.44 41.05 65.9 41.73 67.24 43.08 C 68.58 44.43 69.25 45.88 67.92 46.13 Z M 50 43.57 C 45.2 43.57 40.88 45.66 37.92 49 C 35.35 51.89 33.79 55.7 33.79 59.88 C 33.79 68.89 41.04 76.19 50 76.19 C 58.42 76.19 65.34 69.73 66.14 61.47 C 66.19 60.95 66.21 60.41 66.21 59.88 C 66.21 50.87 58.96 43.57 50 43.57 Z M 62.78 58.92 C 62.78 58.92 53.82 58.92 50.83 58.92 C 50 58.92 50 58.08 50 58.08 C 50 58.08 50 46.84 50 46.84 C 50 46.25 50.6 46.23 50.89 46.25 C 57.37 46.67 62.61 51.67 63.46 58.06 C 63.49 58.35 63.39 58.92 62.78 58.92 Z" />
</svg>