<?xml version="1.0" encoding="utf-8"?>
<!-- Generator: Avocode 2.6.0 - http://avocode.com -->
<svg height="118" width="102" xmlns:xlink="http://www.w3.org/1999/xlink" xmlns="http://www.w3.org/2000/svg" viewBox="0 0 102 118">
    <defs>
        <linearGradient y2="0%" y1="100%" x2="0%" x1="0%" id="gradient-1">
            <stop stop-color="#ffa800" offset="0%" />
            <stop stop-color="#ffbf44" offset="100%" />
        </linearGradient>
        <filter height="200%" width="200%" y="-50%" x="-50%" id="filter-2">
            <feOffset result="shadowOffset1" in="SourceAlpha" dy="1.7" dx="1" />
            <feGaussianBlur result="shadowBlur1" in="shadowOffset1" stdDeviation="2" />
            <feColorMatrix result="shadowMatrix1" in="shadowBlur1" type="matrix" values="0 0 0 0 0   0 0 0 0 0   0 0 0 0 0   0 0 0 0.14 0" />
            <feOffset result="shadowOffset2" in="SourceAlpha" dy="-4" dx="0" />
            <feGaussianBlur result="shadowBlur2" in="shadowOffset2" stdDeviation="0" />
            <feComposite result="shadowInner2" in2="SourceAlpha" in1="shadowBlur2" k3="1" k2="-1" operator="arithmetic" />
            <feColorMatrix result="shadowMatrix2" in="shadowInner2" type="matrix" values="0 0 0 0 0.9019607843137255   0 0 0 0 0.596078431372549   0 0 0 0 0   0 0 0 1 0" />
            <feMerge>
                <feMergeNode in="shadowMatrix1" />
                <feMergeNode in="SourceGraphic" />
                <feMergeNode in="shadowMatrix2" />
            </feMerge>
        </filter>
    </defs>
    <path filter="url(#filter-2)" fill="url(#gradient-1)" fill-rule="evenodd" d="M 0 28.75 C 0 28.75 50 0 50 0 C 50 0 100 28.75 100 28.75 C 100 28.75 100 86.25 100 86.25 C 100 86.25 50 115 50 115 C 50 115 0 86.25 0 86.25 C 0 86.25 0 28.75 0 28.75 Z" />
    <path fill="#ffffff" fill-rule="evenodd" d="M 65.07 70.47 C 65.07 70.47 64.78 71.04 64.78 71.04 C 65.69 71.96 65.89 73.83 65.35 76.47 C 65.31 76.67 65.24 77.19 65.23 77.83 C 65.23 77.83 65.24 83.85 65.24 83.85 C 65.24 83.93 65.17 84 65.09 84 C 65.09 84 60.52 84 60.52 84 C 60.44 84 60.38 83.93 60.38 83.85 C 60.38 83.85 60.38 79.03 60.38 79.03 C 60.38 79.03 50 79.03 50 79.03 C 50 79.03 39.63 79.03 39.63 79.03 C 39.63 79.03 39.63 83.85 39.63 83.85 C 39.63 83.93 39.56 84 39.48 84 C 39.48 84 34.91 84 34.91 84 C 34.83 84 34.77 83.93 34.77 83.85 C 34.77 83.85 34.77 77.83 34.77 77.83 C 34.76 77.19 34.69 76.67 34.65 76.47 C 34.11 73.83 34.31 71.96 35.22 71.04 C 35.22 71.04 34.93 70.47 34.93 70.47 C 34.93 70.47 32 70.17 32 70.17 C 32 70.17 32 67.38 32 67.38 C 32.01 67.38 32.03 67.38 32.04 67.38 C 32.04 67.38 34.8 67.38 34.8 67.38 C 34.8 67.38 36.43 69.12 36.43 69.12 C 36.43 69.12 38.29 63.38 38.29 63.38 C 38.29 63.38 38.31 63.34 38.31 63.34 C 38.31 63.34 40.65 61.14 49.85 61.14 C 49.9 61.14 49.95 61.14 50 61.14 C 50.05 61.14 50.1 61.14 50.15 61.14 C 59.35 61.14 61.69 63.34 61.69 63.34 C 61.69 63.34 61.71 63.38 61.71 63.38 C 61.71 63.38 63.57 69.12 63.57 69.12 C 63.57 69.12 65.2 67.38 65.2 67.38 C 65.2 67.38 67.96 67.38 67.96 67.38 C 67.97 67.38 67.99 67.38 68 67.38 C 68 67.38 68 70.17 68 70.17 C 68 70.17 65.07 70.47 65.07 70.47 Z M 38.43 75.99 C 38.43 75.99 44.18 75.94 44.18 75.94 C 44.18 75.94 44.34 73.79 44.34 73.79 C 44.34 73.79 37.95 73.43 37.95 73.43 C 37.95 73.43 38.43 75.99 38.43 75.99 Z M 60.07 64.26 C 59.82 64.1 59.19 63.8 57.74 63.54 C 55.88 63.19 53.33 63.02 50.15 63.02 C 50.1 63.02 50.05 63.02 50 63.02 C 49.95 63.02 49.9 63.02 49.85 63.02 C 46.67 63.02 44.12 63.19 42.26 63.54 C 40.81 63.8 40.18 64.1 39.93 64.26 C 39.93 64.26 37.96 70.32 37.96 70.32 C 37.96 70.32 50 70.32 50 70.32 C 50 70.32 62.04 70.32 62.04 70.32 C 62.04 70.32 60.07 64.26 60.07 64.26 Z M 55.66 73.79 C 55.66 73.79 55.82 75.94 55.82 75.94 C 55.82 75.94 61.57 75.99 61.57 75.99 C 61.57 75.99 62.05 73.43 62.05 73.43 C 62.05 73.43 55.66 73.79 55.66 73.79 Z M 56.32 55.5 C 56.32 55.5 53.67 58.64 53.67 58.64 C 52.82 57.51 51.49 56.79 50 56.79 C 48.51 56.79 47.18 57.51 46.33 58.64 C 46.33 58.64 43.68 55.5 43.68 55.5 C 45.26 53.76 47.51 52.66 50 52.66 C 52.49 52.66 54.74 53.76 56.32 55.5 Z M 38.08 48.83 C 41.17 45.74 45.37 43.85 50 43.85 C 54.63 43.85 58.83 45.74 61.92 48.83 C 61.92 48.83 59.31 51.94 59.31 51.94 C 56.92 49.49 53.63 47.97 50 47.97 C 46.37 47.97 43.08 49.49 40.69 51.94 C 40.69 51.94 38.08 48.83 38.08 48.83 Z M 50 39.12 C 44.23 39.12 38.97 41.45 35.07 45.25 C 35.07 45.25 32.45 42.13 32.45 42.13 C 37.23 37.53 43.43 35 50 35 C 56.57 35 62.77 37.53 67.55 42.13 C 67.55 42.13 64.93 45.25 64.93 45.25 C 61.03 41.45 55.77 39.12 50 39.12 Z" />
</svg>