<?xml version="1.0" encoding="utf-8"?>
<!-- Generator: Avocode 2.6.0 - http://avocode.com -->
<svg height="118" width="102" xmlns:xlink="http://www.w3.org/1999/xlink" xmlns="http://www.w3.org/2000/svg" viewBox="0 0 102 118">
    <defs>
        <linearGradient y2="0%" y1="100%" x2="0%" x1="0%" id="gradient-1">
            <stop stop-color="#ffa800" offset="0%" />
            <stop stop-color="#ffbf44" offset="100%" />
        </linearGradient>
        <filter height="200%" width="200%" y="-50%" x="-50%" id="filter-2">
            <feOffset result="shadowOffset1" in="SourceAlpha" dy="1.7" dx="1" />
            <feGaussianBlur result="shadowBlur1" in="shadowOffset1" stdDeviation="2" />
            <feColorMatrix result="shadowMatrix1" in="shadowBlur1" type="matrix" values="0 0 0 0 0   0 0 0 0 0   0 0 0 0 0   0 0 0 0.14 0" />
            <feOffset result="shadowOffset2" in="SourceAlpha" dy="-4" dx="0" />
            <feGaussianBlur result="shadowBlur2" in="shadowOffset2" stdDeviation="0" />
            <feComposite result="shadowInner2" in2="SourceAlpha" in1="shadowBlur2" k3="1" k2="-1" operator="arithmetic" />
            <feColorMatrix result="shadowMatrix2" in="shadowInner2" type="matrix" values="0 0 0 0 0.9019607843137255   0 0 0 0 0.596078431372549   0 0 0 0 0   0 0 0 1 0" />
            <feMerge>
                <feMergeNode in="shadowMatrix1" />
                <feMergeNode in="SourceGraphic" />
                <feMergeNode in="shadowMatrix2" />
            </feMerge>
        </filter>
    </defs>
    <path filter="url(#filter-2)" fill="url(#gradient-1)" fill-rule="evenodd" d="M 0 28.75 C 0 28.75 50 0 50 0 C 50 0 100 28.75 100 28.75 C 100 28.75 100 86.25 100 86.25 C 100 86.25 50 115 50 115 C 50 115 0 86.25 0 86.25 C 0 86.25 0 28.75 0 28.75 Z" />
    <path fill="#ffffff" fill-rule="evenodd" d="M 66.99 76.27 C 66.91 76.52 66.7 76.7 66.45 76.74 C 66.45 76.74 64.1 77.17 64.1 77.17 C 64.1 77.17 63.66 79.46 63.66 79.46 C 63.61 79.71 63.43 79.92 63.18 79.99 C 62.93 80.07 62.65 80 62.47 79.82 C 62.47 79.82 57.63 75.11 57.63 75.11 C 57.63 75.11 57.99 74.76 57.99 74.76 C 58.06 74.69 58.17 74.64 58.34 74.65 C 58.34 74.65 60.4 74.98 60.4 74.98 C 60.99 75.07 61.57 74.93 62.04 74.6 C 62.51 74.27 62.83 73.75 62.92 73.19 C 62.92 73.19 63.11 71.97 63.11 71.97 C 63.11 71.97 66.81 75.58 66.81 75.58 C 67 75.76 67.07 76.03 66.99 76.27 Z M 65.5 67.47 C 65.66 67.78 65.69 68.13 65.58 68.46 C 65.48 68.78 65.24 69.05 64.92 69.2 C 64.92 69.2 63.06 70.11 63.06 70.11 C 62.68 70.3 62.42 70.64 62.36 71.05 C 62.36 71.05 62.05 73.06 62.05 73.06 C 62 73.4 61.81 73.7 61.52 73.9 C 61.24 74.1 60.89 74.18 60.54 74.13 C 60.54 74.13 58.48 73.8 58.48 73.8 C 58.07 73.73 57.65 73.87 57.36 74.16 C 57.36 74.16 55.89 75.61 55.89 75.61 C 55.64 75.85 55.31 75.99 54.96 75.99 C 54.61 75.99 54.27 75.85 54.02 75.61 C 54.02 75.61 52.56 74.16 52.56 74.16 C 52.27 73.87 51.85 73.73 51.44 73.8 C 51.44 73.8 49.38 74.13 49.38 74.13 C 49.03 74.19 48.68 74.11 48.39 73.9 C 48.11 73.71 47.92 73.4 47.87 73.06 C 47.87 73.06 47.56 71.05 47.56 71.05 C 47.5 70.65 47.24 70.3 46.86 70.12 C 46.86 70.12 44.99 69.21 44.99 69.21 C 44.68 69.05 44.44 68.79 44.34 68.46 C 44.23 68.13 44.26 67.78 44.42 67.48 C 44.42 67.48 45.38 65.66 45.38 65.66 C 45.57 65.31 45.57 64.88 45.38 64.52 C 45.38 64.52 44.42 62.71 44.42 62.71 C 44.26 62.4 44.23 62.05 44.34 61.72 C 44.44 61.4 44.68 61.13 44.99 60.98 C 44.99 60.98 46.86 60.07 46.86 60.07 C 47.24 59.88 47.5 59.54 47.56 59.13 C 47.56 59.13 47.87 57.12 47.87 57.12 C 47.92 56.78 48.11 56.48 48.39 56.28 C 48.68 56.08 49.03 56 49.38 56.05 C 49.38 56.05 51.44 56.38 51.44 56.38 C 51.85 56.45 52.27 56.32 52.56 56.03 C 52.56 56.03 54.02 54.58 54.02 54.58 C 54.27 54.34 54.61 54.2 54.96 54.2 C 55.31 54.2 55.64 54.33 55.89 54.58 C 55.89 54.58 57.36 56.03 57.36 56.03 C 57.65 56.32 58.07 56.45 58.48 56.38 C 58.48 56.38 60.54 56.05 60.54 56.05 C 60.89 55.99 61.24 56.07 61.52 56.28 C 61.81 56.48 62 56.78 62.05 57.12 C 62.05 57.12 62.36 59.13 62.36 59.13 C 62.42 59.53 62.68 59.88 63.06 60.06 C 63.06 60.06 64.92 60.97 64.92 60.97 C 65.24 61.13 65.48 61.39 65.58 61.72 C 65.69 62.05 65.66 62.4 65.5 62.7 C 65.5 62.7 64.54 64.51 64.54 64.51 C 64.35 64.87 64.35 65.3 64.54 65.66 C 64.54 65.66 65.5 67.47 65.5 67.47 Z M 54.96 57.14 C 50.57 57.14 47 60.62 47 64.9 C 47 69.18 50.57 72.66 54.96 72.66 C 59.35 72.66 62.92 69.18 62.92 64.9 C 62.92 60.62 59.35 57.14 54.96 57.14 Z M 54.96 71.52 C 51.21 71.52 48.16 68.55 48.16 64.89 C 48.16 61.23 51.21 58.26 54.96 58.26 C 58.71 58.26 61.76 61.23 61.76 64.89 C 61.76 68.55 58.71 71.52 54.96 71.52 Z M 39.74 44.75 C 39.11 44.75 38.61 44.26 38.61 43.64 C 38.61 43.04 39.11 42.54 39.74 42.54 C 39.74 42.54 57.07 42.54 57.07 42.54 C 57.69 42.54 58.2 43.04 58.2 43.65 C 58.2 44.26 57.69 44.75 57.07 44.75 C 57.07 44.75 39.74 44.75 39.74 44.75 Z M 57.07 50.39 C 57.07 50.39 39.74 50.39 39.74 50.39 C 39.11 50.39 38.61 49.9 38.61 49.29 C 38.61 48.68 39.11 48.19 39.74 48.19 C 39.74 48.19 57.07 48.19 57.07 48.19 C 57.69 48.19 58.2 48.68 58.2 49.29 C 58.2 49.9 57.69 50.39 57.07 50.39 Z M 62.6 54.86 C 62.26 54.62 61.88 54.45 61.47 54.35 C 61.47 54.35 61.47 38.22 61.47 38.22 C 61.47 37.73 61.07 37.34 60.57 37.34 C 60.57 37.34 36.29 37.34 36.29 37.34 C 35.79 37.34 35.38 37.73 35.38 38.22 C 35.38 38.22 35.38 69.5 35.38 69.5 C 35.38 69.99 35.79 70.38 36.29 70.38 C 36.29 70.38 43.58 70.38 43.58 70.38 C 43.77 70.54 43.97 70.68 44.19 70.78 C 44.19 70.78 45.04 71.2 45.04 71.2 C 45.04 71.2 43.46 72.74 43.46 72.74 C 43.46 72.74 36.29 72.74 36.29 72.74 C 34.46 72.74 32.97 71.29 32.97 69.51 C 32.97 69.51 32.97 38.22 32.97 38.22 C 32.97 36.44 34.46 34.99 36.29 34.99 C 36.29 34.99 60.57 34.99 60.57 34.99 C 62.39 34.99 63.88 36.44 63.88 38.22 C 63.88 38.22 63.84 56.86 63.84 56.86 C 63.72 56.06 63.26 55.32 62.6 54.86 Z M 46.81 71.97 C 46.81 71.97 46.99 73.19 46.99 73.19 C 47.08 73.75 47.4 74.26 47.87 74.59 C 48.34 74.93 48.92 75.07 49.51 74.98 C 49.51 74.98 51.64 74.64 51.64 74.64 C 51.75 74.64 51.85 74.68 51.93 74.76 C 51.93 74.76 52.28 75.11 52.28 75.11 C 52.28 75.11 47.45 79.82 47.45 79.82 C 47.27 80 47 80.07 46.75 79.99 C 46.5 79.92 46.31 79.71 46.26 79.46 C 46.26 79.46 45.82 77.17 45.82 77.17 C 45.82 77.17 43.47 76.74 43.47 76.74 C 43.22 76.69 43.01 76.52 42.93 76.27 C 42.86 76.03 42.92 75.76 43.11 75.58 C 43.11 75.58 46.81 71.97 46.81 71.97 Z" />
</svg>