<?xml version="1.0" encoding="utf-8"?>
<!-- Generator: Avocode 2.6.0 - http://avocode.com -->
<svg height="118" width="102" xmlns:xlink="http://www.w3.org/1999/xlink" xmlns="http://www.w3.org/2000/svg" viewBox="0 0 102 118">
    <defs>
        <linearGradient y2="0%" y1="100%" x2="0%" x1="0%" id="gradient-1">
            <stop stop-color="#ffa800" offset="0%" />
            <stop stop-color="#ffbf44" offset="100%" />
        </linearGradient>
        <filter height="200%" width="200%" y="-50%" x="-50%" id="filter-2">
            <feOffset result="shadowOffset1" in="SourceAlpha" dy="1.7" dx="1" />
            <feGaussianBlur result="shadowBlur1" in="shadowOffset1" stdDeviation="2" />
            <feColorMatrix result="shadowMatrix1" in="shadowBlur1" type="matrix" values="0 0 0 0 0   0 0 0 0 0   0 0 0 0 0   0 0 0 0.14 0" />
            <feOffset result="shadowOffset2" in="SourceAlpha" dy="-4" dx="0" />
            <feGaussianBlur result="shadowBlur2" in="shadowOffset2" stdDeviation="0" />
            <feComposite result="shadowInner2" in2="SourceAlpha" in1="shadowBlur2" k3="1" k2="-1" operator="arithmetic" />
            <feColorMatrix result="shadowMatrix2" in="shadowInner2" type="matrix" values="0 0 0 0 0.9019607843137255   0 0 0 0 0.596078431372549   0 0 0 0 0   0 0 0 1 0" />
            <feMerge>
                <feMergeNode in="shadowMatrix1" />
                <feMergeNode in="SourceGraphic" />
                <feMergeNode in="shadowMatrix2" />
            </feMerge>
        </filter>
    </defs>
    <path filter="url(#filter-2)" fill="url(#gradient-1)" fill-rule="evenodd" d="M 0 28.75 C 0 28.75 50 0 50 0 C 50 0 100 28.75 100 28.75 C 100 28.75 100 86.25 100 86.25 C 100 86.25 50 115 50 115 C 50 115 0 86.25 0 86.25 C 0 86.25 0 28.75 0 28.75 Z" />
    <path fill="#ffffff" fill-rule="evenodd" d="M 65.42 60.53 C 65.21 60.15 65.32 59.68 65.65 59.41 C 67.63 57.86 67.73 52.57 63.93 52.57 C 63.93 52.57 54.04 52.57 54.04 52.57 C 52.11 52.57 50.88 50.49 51.83 48.8 C 52.99 46.73 53.83 44.43 54.64 41.85 C 55.51 39.07 53.76 37 51.72 37 C 50.63 37 49.47 37.59 48.58 38.96 C 46.02 42.93 44.22 47.48 41.71 49.91 C 39.73 51.82 33 55.73 33 55.97 C 33 55.97 33 72.04 33 72.04 C 33 72.5 33.35 72.88 33.8 72.95 C 33.8 72.95 39.62 73.84 39.62 73.84 C 39.75 73.86 39.87 73.9 39.98 73.98 C 45.22 77.41 49.94 79 53.79 79 C 54.83 79 55.81 78.88 56.71 78.66 C 61.22 77.53 61.51 74.77 61.33 73.34 C 61.27 72.87 61.56 72.45 62.01 72.33 C 64.42 71.69 64.53 68.42 63.77 66.83 C 63.56 66.39 63.76 65.87 64.2 65.63 C 65.99 64.67 66.13 61.85 65.42 60.53 Z" />
</svg>