<?xml version="1.0" encoding="utf-8"?>
<!-- Generator: Avocode 2.6.0 - http://avocode.com -->
<svg height="31" width="23" xmlns:xlink="http://www.w3.org/1999/xlink" xmlns="http://www.w3.org/2000/svg" viewBox="0 0 23 31">
    <path fill="#ffad0d" fill-rule="evenodd" d="M 21.13 22.44 C 21.13 22.44 20.94 22.8 20.94 22.8 C 21.52 23.38 21.65 24.57 21.31 26.24 C 21.28 26.36 21.24 26.69 21.23 27.09 C 21.23 27.09 21.23 30.91 21.23 30.91 C 21.23 30.96 21.19 31 21.14 31 C 21.14 31 18.22 31 18.22 31 C 18.17 31 18.13 30.96 18.13 30.91 C 18.13 30.91 18.13 27.85 18.13 27.85 C 18.13 27.85 11.5 27.85 11.5 27.85 C 11.5 27.85 4.87 27.85 4.87 27.85 C 4.87 27.85 4.87 30.91 4.87 30.91 C 4.87 30.96 4.83 31 4.78 31 C 4.78 31 1.86 31 1.86 31 C 1.81 31 1.77 30.96 1.77 30.91 C 1.77 30.91 1.77 27.09 1.77 27.09 C 1.76 26.69 1.72 26.36 1.69 26.24 C 1.35 24.57 1.48 23.38 2.06 22.8 C 2.06 22.8 1.88 22.44 1.88 22.44 C 1.88 22.44 0 22.25 0 22.25 C 0 22.25 0 20.48 0 20.48 C 0.01 20.48 0.02 20.48 0.03 20.48 C 0.03 20.48 1.79 20.48 1.79 20.48 C 1.79 20.48 2.83 21.59 2.83 21.59 C 2.83 21.59 4.02 17.96 4.02 17.96 C 4.02 17.96 4.03 17.93 4.03 17.93 C 4.03 17.93 5.53 16.54 11.4 16.54 C 11.44 16.54 11.47 16.54 11.5 16.54 C 11.53 16.54 11.56 16.54 11.6 16.54 C 17.47 16.54 18.97 17.93 18.97 17.93 C 18.97 17.93 18.98 17.96 18.98 17.96 C 18.98 17.96 20.17 21.59 20.17 21.59 C 20.17 21.59 21.21 20.48 21.21 20.48 C 21.21 20.48 22.97 20.48 22.97 20.48 C 22.98 20.48 22.99 20.48 23 20.48 C 23 20.48 23 22.25 23 22.25 C 23 22.25 21.13 22.44 21.13 22.44 Z M 4.11 25.93 C 4.11 25.93 7.78 25.9 7.78 25.9 C 7.78 25.9 7.88 24.54 7.88 24.54 C 7.88 24.54 3.8 24.31 3.8 24.31 C 3.8 24.31 4.11 25.93 4.11 25.93 Z M 17.93 18.51 C 17.77 18.41 17.37 18.22 16.44 18.05 C 15.26 17.84 13.63 17.73 11.6 17.73 C 11.56 17.73 11.53 17.73 11.5 17.73 C 11.47 17.73 11.44 17.73 11.4 17.73 C 9.37 17.73 7.74 17.84 6.56 18.05 C 5.63 18.22 5.23 18.41 5.07 18.51 C 5.07 18.51 3.81 22.35 3.81 22.35 C 3.81 22.35 11.5 22.35 11.5 22.35 C 11.5 22.35 19.19 22.35 19.19 22.35 C 19.19 22.35 17.93 18.51 17.93 18.51 Z M 15.12 24.54 C 15.12 24.54 15.22 25.9 15.22 25.9 C 15.22 25.9 18.89 25.93 18.89 25.93 C 18.89 25.93 19.2 24.31 19.2 24.31 C 19.2 24.31 15.12 24.54 15.12 24.54 Z M 15.53 12.97 C 15.53 12.97 13.85 14.96 13.85 14.96 C 13.3 14.24 12.45 13.78 11.5 13.78 C 10.55 13.78 9.7 14.24 9.15 14.96 C 9.15 14.96 7.47 12.97 7.47 12.97 C 8.47 11.87 9.91 11.18 11.5 11.18 C 13.09 11.18 14.53 11.87 15.53 12.97 Z M 3.88 8.75 C 5.86 6.8 8.54 5.6 11.5 5.6 C 14.46 5.6 17.14 6.8 19.12 8.75 C 19.12 8.75 17.45 10.72 17.45 10.72 C 15.92 9.16 13.82 8.2 11.5 8.2 C 9.18 8.2 7.08 9.16 5.55 10.72 C 5.55 10.72 3.88 8.75 3.88 8.75 Z M 11.5 2.61 C 7.81 2.61 4.46 4.08 1.96 6.49 C 1.96 6.49 0.29 4.51 0.29 4.51 C 3.34 1.6 7.3 0 11.5 0 C 15.7 0 19.66 1.6 22.71 4.51 C 22.71 4.51 21.04 6.49 21.04 6.49 C 18.54 4.08 15.19 2.61 11.5 2.61 Z" />
</svg>