<?xml version="1.0" encoding="utf-8"?>
<!-- Generator: Avocode 2.6.0 - http://avocode.com -->
<svg height="32" width="24" xmlns:xlink="http://www.w3.org/1999/xlink" xmlns="http://www.w3.org/2000/svg" viewBox="0 0 24 32">
    <path fill="#ffad0d" fill-rule="evenodd" d="M 23.97 29.33 C 23.92 29.5 23.77 29.63 23.59 29.66 C 23.59 29.66 21.93 29.97 21.93 29.97 C 21.93 29.97 21.62 31.6 21.62 31.6 C 21.59 31.77 21.46 31.92 21.28 31.97 C 21.11 32.02 20.92 31.98 20.78 31.85 C 20.78 31.85 17.38 28.5 17.38 28.5 C 17.38 28.5 17.63 28.26 17.63 28.26 C 17.68 28.2 17.75 28.17 17.87 28.18 C 17.87 28.18 19.33 28.41 19.33 28.41 C 19.74 28.48 20.16 28.38 20.48 28.14 C 20.82 27.9 21.04 27.54 21.11 27.14 C 21.11 27.14 21.24 26.27 21.24 26.27 C 21.24 26.27 23.84 28.84 23.84 28.84 C 23.98 28.97 24.02 29.15 23.97 29.33 Z M 22.92 23.08 C 23.03 23.29 23.06 23.54 22.98 23.77 C 22.91 24 22.74 24.2 22.51 24.31 C 22.51 24.31 21.2 24.95 21.2 24.95 C 20.94 25.08 20.75 25.33 20.71 25.62 C 20.71 25.62 20.49 27.05 20.49 27.05 C 20.45 27.29 20.32 27.5 20.12 27.64 C 19.92 27.79 19.67 27.84 19.43 27.81 C 19.43 27.81 17.97 27.58 17.97 27.58 C 17.69 27.52 17.39 27.62 17.19 27.83 C 17.19 27.83 16.15 28.86 16.15 28.86 C 15.98 29.03 15.74 29.13 15.49 29.13 C 15.25 29.13 15.01 29.03 14.83 28.86 C 14.83 28.86 13.8 27.83 13.8 27.83 C 13.6 27.62 13.3 27.52 13.01 27.58 C 13.01 27.58 11.56 27.81 11.56 27.81 C 11.32 27.85 11.07 27.79 10.87 27.65 C 10.67 27.51 10.53 27.29 10.5 27.05 C 10.5 27.05 10.28 25.62 10.28 25.62 C 10.24 25.33 10.05 25.09 9.79 24.96 C 9.79 24.96 8.47 24.31 8.47 24.31 C 8.25 24.2 8.09 24.01 8.01 23.78 C 7.93 23.54 7.95 23.3 8.07 23.08 C 8.07 23.08 8.74 21.79 8.74 21.79 C 8.88 21.54 8.88 21.23 8.74 20.98 C 8.74 20.98 8.07 19.69 8.07 19.69 C 7.95 19.47 7.93 19.22 8.01 18.99 C 8.08 18.76 8.25 18.57 8.47 18.46 C 8.47 18.46 9.79 17.81 9.79 17.81 C 10.05 17.68 10.24 17.44 10.28 17.15 C 10.28 17.15 10.5 15.72 10.5 15.72 C 10.53 15.48 10.67 15.26 10.87 15.13 C 11.07 14.98 11.32 14.92 11.56 14.96 C 11.56 14.96 13.01 15.2 13.01 15.2 C 13.3 15.24 13.6 15.15 13.8 14.94 C 13.8 14.94 14.83 13.91 14.83 13.91 C 15.01 13.74 15.25 13.64 15.49 13.64 C 15.74 13.64 15.98 13.74 16.15 13.91 C 16.15 13.91 17.19 14.94 17.19 14.94 C 17.39 15.15 17.68 15.24 17.97 15.2 C 17.97 15.2 19.43 14.96 19.43 14.96 C 19.67 14.92 19.92 14.98 20.12 15.12 C 20.32 15.26 20.45 15.48 20.49 15.72 C 20.49 15.72 20.71 17.15 20.71 17.15 C 20.75 17.43 20.94 17.68 21.2 17.81 C 21.2 17.81 22.51 18.46 22.51 18.46 C 22.74 18.57 22.9 18.75 22.98 18.99 C 23.06 19.22 23.03 19.47 22.92 19.68 C 22.92 19.68 22.24 20.97 22.24 20.97 C 22.11 21.23 22.11 21.53 22.24 21.79 C 22.24 21.79 22.92 23.08 22.92 23.08 Z M 15.49 15.73 C 12.4 15.73 9.88 18.21 9.88 21.25 C 9.88 24.29 12.4 26.76 15.49 26.76 C 18.59 26.76 21.1 24.29 21.1 21.25 C 21.1 18.21 18.58 15.73 15.49 15.73 Z M 15.49 25.95 C 12.85 25.95 10.7 23.84 10.7 21.24 C 10.7 18.64 12.85 16.53 15.49 16.53 C 18.14 16.53 20.28 18.64 20.28 21.24 C 20.28 23.84 18.14 25.95 15.49 25.95 Z M 4.77 6.93 C 4.33 6.93 3.97 6.58 3.97 6.14 C 3.97 5.71 4.33 5.36 4.77 5.36 C 4.77 5.36 16.98 5.36 16.98 5.36 C 17.42 5.36 17.77 5.71 17.77 6.14 C 17.77 6.58 17.42 6.93 16.98 6.93 C 16.98 6.93 4.77 6.93 4.77 6.93 Z M 16.98 10.94 C 16.98 10.94 4.77 10.94 4.77 10.94 C 4.33 10.94 3.97 10.59 3.97 10.15 C 3.97 9.72 4.33 9.37 4.77 9.37 C 4.77 9.37 16.98 9.37 16.98 9.37 C 17.42 9.37 17.77 9.72 17.77 10.15 C 17.77 10.59 17.42 10.94 16.98 10.94 Z M 20.88 14.12 C 20.64 13.94 20.37 13.82 20.08 13.75 C 20.08 13.75 20.08 2.29 20.08 2.29 C 20.08 1.94 19.8 1.66 19.45 1.66 C 19.45 1.66 2.34 1.66 2.34 1.66 C 1.99 1.66 1.7 1.94 1.7 2.29 C 1.7 2.29 1.7 24.52 1.7 24.52 C 1.7 24.86 1.99 25.14 2.34 25.14 C 2.34 25.14 7.48 25.14 7.48 25.14 C 7.61 25.25 7.75 25.35 7.9 25.43 C 7.9 25.43 8.5 25.72 8.5 25.72 C 8.5 25.72 7.39 26.82 7.39 26.82 C 7.39 26.82 2.34 26.82 2.34 26.82 C 1.05 26.82 0 25.79 0 24.52 C 0 24.52 0 2.29 0 2.29 C 0 1.02 1.05 -0.01 2.34 -0.01 C 2.34 -0.01 19.45 -0.01 19.45 -0.01 C 20.73 -0.01 21.78 1.02 21.78 2.29 C 21.78 2.29 21.75 15.54 21.75 15.54 C 21.67 14.97 21.34 14.44 20.88 14.12 Z M 9.75 26.27 C 9.75 26.27 9.88 27.13 9.88 27.13 C 9.94 27.53 10.17 27.9 10.5 28.14 C 10.83 28.38 11.24 28.48 11.66 28.41 C 11.66 28.41 13.16 28.17 13.16 28.17 C 13.23 28.17 13.31 28.2 13.36 28.25 C 13.36 28.25 13.61 28.5 13.61 28.5 C 13.61 28.5 10.2 31.85 10.2 31.85 C 10.07 31.98 9.88 32.02 9.71 31.97 C 9.53 31.92 9.4 31.77 9.37 31.6 C 9.37 31.6 9.06 29.97 9.06 29.97 C 9.06 29.97 7.4 29.66 7.4 29.66 C 7.22 29.63 7.07 29.5 7.02 29.33 C 6.97 29.15 7.01 28.97 7.14 28.84 C 7.14 28.84 9.75 26.27 9.75 26.27 Z" />
</svg>