<?xml version="1.0" encoding="utf-8"?>
<!-- Generator: Avocode 2.6.0 - http://avocode.com -->
<svg height="41" width="42" xmlns:xlink="http://www.w3.org/1999/xlink" xmlns="http://www.w3.org/2000/svg" viewBox="0 0 42 41">
    <path fill="#54bdff" fill-rule="evenodd" d="M 39.75 23.47 C 39.9 22.5 39.99 21.51 39.99 20.5 C 39.99 9.99 31.37 1.48 20.74 1.48 C 19.72 1.48 18.72 1.56 17.74 1.71 C 15.96 0.63 13.87 0 11.63 0 C 5.21 0 0 5.15 0 11.5 C 0 13.71 0.64 15.78 1.73 17.53 C 1.58 18.5 1.5 19.49 1.5 20.5 C 1.5 31.01 10.11 39.52 20.74 39.52 C 21.76 39.52 22.76 39.44 23.74 39.29 C 25.52 40.37 27.61 41 29.85 41 C 36.28 41 41.48 35.85 41.48 29.5 C 41.48 27.29 40.85 25.22 39.75 23.47 Z M 29.88 29.15 C 29.06 30.31 27.87 31.21 26.3 31.87 C 24.74 32.52 22.89 32.84 20.75 32.84 C 18.19 32.84 16.07 32.4 14.39 31.5 C 13.21 30.86 12.24 30 11.5 28.93 C 10.76 27.86 10.38 26.81 10.38 25.79 C 10.38 25.18 10.61 24.66 11.07 24.23 C 11.53 23.8 12.12 23.58 12.81 23.58 C 13.38 23.58 13.87 23.75 14.27 24.09 C 14.67 24.42 15 24.91 15.27 25.56 C 15.6 26.31 15.95 26.93 16.33 27.43 C 16.7 27.93 17.23 28.34 17.91 28.66 C 18.59 28.98 19.49 29.14 20.61 29.14 C 22.15 29.14 23.39 28.82 24.34 28.16 C 25.3 27.51 25.76 26.71 25.76 25.75 C 25.76 24.99 25.51 24.38 25 23.9 C 24.49 23.42 23.83 23.05 23.01 22.8 C 22.18 22.54 21.07 22.26 19.69 21.98 C 17.83 21.57 16.27 21.11 15.01 20.57 C 13.75 20.03 12.74 19.29 11.99 18.36 C 11.25 17.42 10.87 16.25 10.87 14.87 C 10.87 13.55 11.27 12.37 12.06 11.35 C 12.84 10.32 13.98 9.53 15.46 8.98 C 16.94 8.43 18.68 8.16 20.68 8.16 C 22.27 8.16 23.65 8.34 24.82 8.7 C 25.99 9.07 26.96 9.55 27.73 10.15 C 28.51 10.76 29.07 11.4 29.43 12.07 C 29.79 12.74 29.97 13.39 29.97 14.03 C 29.97 14.63 29.74 15.16 29.29 15.63 C 28.83 16.11 28.25 16.35 27.57 16.35 C 26.96 16.35 26.48 16.21 26.15 15.91 C 25.82 15.63 25.48 15.17 25.12 14.54 C 24.65 13.65 24.09 12.96 23.44 12.47 C 22.81 11.99 21.77 11.74 20.32 11.74 C 18.98 11.74 17.91 12.01 17.1 12.54 C 16.29 13.08 15.9 13.7 15.9 14.43 C 15.9 14.89 16.03 15.28 16.3 15.61 C 16.57 15.94 16.95 16.23 17.44 16.48 C 17.93 16.72 18.42 16.91 18.92 17.05 C 19.42 17.19 20.26 17.4 21.42 17.67 C 22.88 17.98 24.2 18.32 25.39 18.7 C 26.57 19.08 27.59 19.54 28.42 20.09 C 29.26 20.63 29.92 21.32 30.39 22.16 C 30.87 23 31.1 24.03 31.1 25.23 C 31.1 26.69 30.69 27.99 29.88 29.15 Z" />
</svg>