<?xml version="1.0" encoding="utf-8"?>
<!-- Generator: Avocode 2.6.0 - http://avocode.com -->
<svg height="37" width="41" xmlns:xlink="http://www.w3.org/1999/xlink" xmlns="http://www.w3.org/2000/svg" viewBox="0 0 41 37">
    <path fill="#ffffff" fill-rule="evenodd" d="M 38.74 18.24 C 38.74 18.24 38.57 18.24 38.57 18.24 C 38.57 18.24 38.87 18.97 38.87 18.97 C 39.46 20.41 39.93 22.85 39.93 24.41 C 39.93 24.41 39.93 34.72 39.93 34.72 C 39.93 35.98 38.92 37 37.67 37 C 37.67 37 34.96 37 34.96 37 C 33.72 37 32.7 35.98 32.7 34.72 C 32.7 34.72 32.7 32.19 32.7 32.19 C 32.7 32.19 8.27 32.19 8.27 32.19 C 8.27 32.19 8.27 34.72 8.27 34.72 C 8.27 35.98 7.26 37 6.01 37 C 6.01 37 3.3 37 3.3 37 C 2.05 37 1.04 35.98 1.04 34.72 C 1.04 34.72 1.04 24.41 1.04 24.41 C 1.04 22.85 1.52 20.41 2.1 18.97 C 2.1 18.97 2.4 18.24 2.4 18.24 C 2.4 18.24 2.26 18.24 2.26 18.24 C 1.01 18.24 0 17.21 0 15.96 C 0 15.96 0 14.86 0 14.86 C 0 13.78 0.74 13 1.75 13 C 1.93 13 2.12 13.03 2.31 13.08 C 2.31 13.08 4.28 13.63 4.28 13.63 C 4.28 13.63 6.38 8.46 6.38 8.46 C 7.01 6.91 8.88 5.65 10.54 5.65 C 10.54 5.65 11.97 5.65 11.97 5.65 C 11.97 5.65 11.97 1.37 11.97 1.37 C 11.97 0.61 12.57 0 13.32 0 C 13.32 0 27.68 0 27.68 0 C 28.43 0 29.03 0.61 29.03 1.37 C 29.03 1.37 29.03 5.65 29.03 5.65 C 29.03 5.65 30.43 5.65 30.43 5.65 C 32.1 5.65 33.96 6.91 34.59 8.46 C 34.59 8.46 36.7 13.63 36.7 13.63 C 36.7 13.63 38.69 13.08 38.69 13.08 C 38.88 13.03 39.07 13 39.25 13 C 40.26 13 41 13.78 41 14.86 C 41 14.86 41 15.96 41 15.96 C 41 17.21 39.99 18.24 38.74 18.24 Z M 5.19 24.16 C 5.19 24.16 5.19 27.08 5.19 27.08 C 5.19 27.59 5.59 28 6.09 28 C 6.09 28 12.2 28 12.2 28 C 12.69 28 13.1 27.59 13.1 27.08 C 13.1 27.08 13.1 24.16 13.1 24.16 C 13.1 23.66 12.69 23.25 12.2 23.25 C 12.2 23.25 6.09 23.25 6.09 23.25 C 5.59 23.25 5.19 23.66 5.19 24.16 Z M 17.31 1.82 C 17.31 1.79 17.28 1.77 17.25 1.77 C 17.25 1.77 13.48 1.77 13.48 1.77 C 13.45 1.77 13.42 1.79 13.42 1.82 C 13.42 1.82 13.42 2.49 13.42 2.49 C 13.42 2.52 13.45 2.55 13.48 2.55 C 13.48 2.55 14.73 2.55 14.73 2.55 C 14.76 2.55 14.79 2.57 14.79 2.6 C 14.79 2.6 14.79 5.61 14.79 5.61 C 14.79 5.63 14.8 5.64 14.81 5.65 C 14.81 5.65 15.91 5.65 15.91 5.65 C 15.93 5.64 15.94 5.63 15.94 5.61 C 15.94 5.61 15.94 2.6 15.94 2.6 C 15.94 2.57 15.96 2.55 15.99 2.55 C 15.99 2.55 17.25 2.55 17.25 2.55 C 17.28 2.55 17.31 2.52 17.31 2.49 C 17.31 2.49 17.31 1.82 17.31 1.82 Z M 25.36 5.62 C 25.36 5.62 23.97 3.89 23.97 3.89 C 23.95 3.87 23.95 3.83 23.96 3.8 C 23.96 3.8 25.27 1.81 25.27 1.81 C 25.29 1.79 25.28 1.77 25.25 1.77 C 25.25 1.77 24.09 1.77 24.09 1.77 C 24.06 1.77 24.02 1.79 24.01 1.81 C 24.01 1.81 23.33 2.92 23.33 2.92 C 23.32 2.94 23.29 2.94 23.27 2.92 C 23.27 2.92 22.6 1.81 22.6 1.81 C 22.58 1.79 22.55 1.77 22.52 1.77 C 22.52 1.77 21.36 1.77 21.36 1.77 C 21.33 1.77 21.32 1.79 21.33 1.81 C 21.33 1.81 22.64 3.8 22.64 3.8 C 22.66 3.83 22.66 3.87 22.64 3.89 C 22.64 3.89 21.27 5.59 21.27 5.59 C 21.27 5.59 19.78 1.82 19.78 1.82 C 19.77 1.79 19.74 1.77 19.71 1.77 C 19.71 1.77 18.46 1.77 18.46 1.77 C 18.43 1.77 18.39 1.79 18.38 1.82 C 18.38 1.82 16.86 5.62 16.86 5.62 C 16.86 5.63 16.86 5.64 16.87 5.65 C 16.87 5.65 17.99 5.65 17.99 5.65 C 18 5.64 18.02 5.63 18.02 5.62 C 18.02 5.62 18.3 4.82 18.3 4.82 C 18.31 4.8 18.34 4.77 18.37 4.77 C 18.37 4.77 19.79 4.77 19.79 4.77 C 19.82 4.77 19.85 4.8 19.86 4.82 C 19.86 4.82 20.12 5.61 20.12 5.61 C 20.12 5.63 20.14 5.64 20.15 5.65 C 20.15 5.65 22.47 5.65 22.47 5.65 C 22.49 5.64 22.5 5.63 22.51 5.62 C 22.51 5.62 23.27 4.39 23.27 4.39 C 23.29 4.36 23.32 4.36 23.33 4.39 C 23.33 4.39 24.09 5.62 24.09 5.62 C 24.1 5.63 24.12 5.64 24.13 5.65 C 24.13 5.65 25.37 5.65 25.37 5.65 C 25.37 5.65 25.37 5.63 25.36 5.62 Z M 27.09 1.82 C 27.09 1.79 27.07 1.77 27.04 1.77 C 27.04 1.77 26 1.77 26 1.77 C 25.97 1.77 25.94 1.79 25.94 1.82 C 25.94 1.82 25.94 5.61 25.94 5.61 C 25.94 5.63 25.95 5.64 25.97 5.65 C 25.97 5.65 27.07 5.65 27.07 5.65 C 27.08 5.64 27.09 5.63 27.09 5.61 C 27.09 5.61 27.09 1.82 27.09 1.82 Z M 35.1 16.97 C 35.1 16.97 31.9 9.11 31.9 9.11 C 31.52 8.18 30.4 7.42 29.41 7.42 C 29.41 7.42 11.57 7.42 11.57 7.42 C 10.57 7.42 9.45 8.18 9.07 9.11 C 9.07 9.11 5.87 16.97 5.87 16.97 C 5.5 17.89 6 18.65 6.99 18.65 C 6.99 18.65 33.98 18.65 33.98 18.65 C 34.97 18.65 35.48 17.89 35.1 16.97 Z M 35.73 24.16 C 35.73 23.66 35.32 23.25 34.82 23.25 C 34.82 23.25 28.72 23.25 28.72 23.25 C 28.22 23.25 27.81 23.66 27.81 24.16 C 27.81 24.16 27.81 27.08 27.81 27.08 C 27.81 27.59 28.22 28 28.72 28 C 28.72 28 34.82 28 34.82 28 C 35.32 28 35.73 27.59 35.73 27.08 C 35.73 27.08 35.73 24.16 35.73 24.16 Z M 18.63 3.99 C 18.6 3.99 18.59 3.97 18.6 3.94 C 18.6 3.94 19.08 2.89 19.08 2.89 C 19.09 2.87 19.11 2.87 19.12 2.89 C 19.12 2.89 19.57 3.94 19.57 3.94 C 19.58 3.97 19.57 3.99 19.54 3.99 C 19.54 3.99 18.63 3.99 18.63 3.99 Z" />
</svg>