<?xml version="1.0" encoding="utf-8"?>
<!-- Generator: Avocode 2.6.0 - http://avocode.com -->
<svg height="34" width="37" xmlns:xlink="http://www.w3.org/1999/xlink" xmlns="http://www.w3.org/2000/svg" viewBox="0 0 37 34">
    <path fill="#26a0da" fill-rule="evenodd" d="M 35.57 1.14 C 34.98 0.42 34.07 0 33.07 0 C 32.42 0 31.75 0.17 31.07 0.51 C 31.07 0.51 2.23 14.78 2.23 14.78 C 0.18 15.79 0.04 17.32 0.07 17.93 C 0.11 18.54 0.42 20.05 2.57 20.85 C 2.57 20.85 6.25 22.23 6.25 22.23 C 6.95 22.49 7.74 22.63 8.58 22.63 C 8.71 22.63 8.84 22.61 8.97 22.6 C 8.92 22.66 8.86 22.71 8.81 22.77 C 8.13 23.74 8.09 25.06 8.71 26.47 C 8.72 26.5 8.73 26.52 8.74 26.54 C 9.83 28.82 11.04 31.39 11.19 31.75 C 11.55 32.64 12.47 33.25 13.48 33.25 C 15.03 33.25 15.5 32.54 18.04 28.63 C 18.24 28.35 18.68 27.68 18.76 26.83 C 19.05 26.94 19.33 27.05 19.57 27.14 C 19.57 27.14 23.65 28.71 23.65 28.71 C 24.47 29.02 25.19 29.3 25.57 29.45 C 25.68 29.52 25.81 29.58 25.94 29.63 C 26.22 29.73 26.53 29.79 26.84 29.79 C 28.7 29.79 29.14 28.27 29.38 27.46 C 29.5 27.05 29.66 26.5 29.84 25.88 C 29.84 25.88 36.06 4.29 36.06 4.29 C 36.53 2.66 35.96 1.62 35.57 1.14 Z M 15.99 27.4 C 15.99 27.4 13.68 30.95 13.48 30.95 C 13.47 30.95 13.47 30.95 13.47 30.94 C 13.24 30.37 10.96 25.6 10.96 25.6 C 10.54 24.64 10.62 23.82 11.34 23.82 C 11.5 23.82 11.69 23.86 11.91 23.94 C 11.91 23.94 13.68 24.82 13.68 24.82 C 13.98 25.01 14.3 25.17 14.66 25.3 C 14.66 25.3 14.75 25.33 14.75 25.33 C 14.75 25.33 14.91 25.42 14.91 25.42 C 16.28 26.1 16.72 26.35 15.99 27.4 Z M 33.72 3.69 C 33.72 3.69 27.49 25.28 27.49 25.28 C 27.14 26.5 26.85 27.49 26.84 27.49 C 26.84 27.49 26.83 27.47 26.83 27.46 C 26.83 27.45 25.81 27.06 24.57 26.58 C 24.57 26.58 20.49 25.01 20.49 25.01 C 19.25 24.54 17.21 23.77 15.97 23.32 C 15.97 23.32 15.76 23.24 15.76 23.24 C 15.76 23.24 15 22.87 15 22.87 C 14.24 22.32 14.17 21.42 14.93 20.65 C 14.93 20.65 27.57 7.88 27.57 7.88 C 28.08 7.37 28.27 7.11 28.16 7.11 C 28.07 7.11 27.79 7.28 27.32 7.63 C 27.32 7.63 11.33 19.53 11.33 19.53 C 10.63 20.04 9.57 20.33 8.58 20.33 C 8.07 20.33 7.57 20.25 7.15 20.1 C 7.15 20.1 3.47 18.72 3.47 18.72 C 2.22 18.25 2.18 17.4 3.36 16.81 C 3.36 16.81 32.2 2.54 32.2 2.54 C 32.53 2.38 32.82 2.3 33.07 2.3 C 33.69 2.3 33.97 2.81 33.72 3.69 Z" />
</svg>